<svg width="110" height="110" viewBox="0 0 110 110" fill="none" xmlns="http://www.w3.org/2000/svg">
<g clip-path="url(#clip0_581_8776)">
<path d="M99.24 30.8513C99.28 30.6613 99.2 30.4613 99.04 30.3513L94.66 27.0613L94.89 21.5913C94.89 21.4013 94.8 21.2113 94.62 21.1213C94.44 21.0313 94.24 21.0413 94.08 21.1513L89.6 24.3013L84.47 22.3913C84.29 22.3213 84.08 22.3613 83.94 22.5013C83.8 22.6313 83.74 22.8413 83.8 23.0213L85.41 28.2613L82.01 32.5513C81.89 32.7013 81.86 32.9113 81.95 33.0913C82 33.1913 82.07 33.2713 82.17 33.3213C82.24 33.3613 82.32 33.3813 82.41 33.3813L87.89 33.4713L90.92 38.0313C91.03 38.1913 91.22 38.2813 91.41 38.2513C91.6 38.2213 91.77 38.0913 91.83 37.9113L93.61 32.7313L98.89 31.2613C99.08 31.2113 99.22 31.0513 99.26 30.8613L99.24 30.8513Z" fill="#F8D323"/>
<path d="M95.3301 48.5325C96.6335 48.5325 97.6901 47.4759 97.6901 46.1725C97.6901 44.8691 96.6335 43.8125 95.3301 43.8125C94.0267 43.8125 92.9701 44.8691 92.9701 46.1725C92.9701 47.4759 94.0267 48.5325 95.3301 48.5325Z" fill="#FFA729"/>
<path d="M88.21 19.7018C88.8617 19.7018 89.39 19.1735 89.39 18.5218C89.39 17.8701 88.8617 17.3418 88.21 17.3418C87.5583 17.3418 87.03 17.8701 87.03 18.5218C87.03 19.1735 87.5583 19.7018 88.21 19.7018Z" fill="#F8D323"/>
<path d="M17.51 32.4705C17.38 32.3805 17.21 32.3705 17.07 32.4405L13.19 34.5505L9.25004 32.5505C9.11004 32.4805 8.94004 32.4905 8.82004 32.5905C8.70004 32.6905 8.63004 32.8405 8.66004 33.0005L9.47004 37.3405L6.35004 40.4705C6.24004 40.5805 6.20004 40.7505 6.25004 40.9005C6.30004 41.0505 6.43004 41.1605 6.59004 41.1805L10.97 41.7505L12.98 45.6805C13.05 45.8205 13.2 45.9105 13.35 45.9005C13.44 45.9005 13.52 45.8705 13.59 45.8205C13.64 45.7805 13.69 45.7305 13.72 45.6705L15.62 41.6805L19.98 40.9805C20.14 40.9605 20.26 40.8405 20.31 40.6905C20.36 40.5405 20.31 40.3805 20.2 40.2705L16.99 37.2305L17.67 32.8605C17.69 32.7005 17.63 32.5505 17.5 32.4605L17.51 32.4705Z" fill="#FFA729"/>
<path d="M25.74 35.5305C27.0434 35.5305 28.1 34.4739 28.1 33.1705C28.1 31.8672 27.0434 30.8105 25.74 30.8105C24.4366 30.8105 23.38 31.8672 23.38 33.1705C23.38 34.4739 24.4366 35.5305 25.74 35.5305Z" fill="#F8D323"/>
<path d="M16.1501 28.0812C17.0834 28.0812 17.8401 27.3245 17.8401 26.3912C17.8401 25.4578 17.0834 24.7012 16.1501 24.7012C15.2167 24.7012 14.4601 25.4578 14.4601 26.3912C14.4601 27.3245 15.2167 28.0812 16.1501 28.0812Z" fill="#FFA729"/>
<path d="M49.51 0.880859H38.54V50.5609H49.51V0.880859Z" fill="#DD0029"/>
<path d="M60.48 0.880859H49.51V50.5609H60.48V0.880859Z" fill="#FF9C00"/>
<path d="M71.46 0.880859H60.49V50.5609H71.46V0.880859Z" fill="#DD0029"/>
<path opacity="0.15" d="M49.51 50.5613H71.46V27.6512C66.36 25.6512 60.81 24.5312 55 24.5312C49.19 24.5312 43.64 25.6412 38.54 27.6512V50.5613H49.51Z" fill="black"/>
<path d="M55 109.121C76.8815 109.121 94.62 91.3824 94.62 69.5009C94.62 47.6193 76.8815 29.8809 55 29.8809C33.1185 29.8809 15.38 47.6193 15.38 69.5009C15.38 91.3824 33.1185 109.121 55 109.121Z" fill="#FFC323"/>
<path d="M55 100.951C72.3307 100.951 86.38 86.9021 86.38 69.5714C86.38 52.2407 72.3307 38.1914 55 38.1914C37.6693 38.1914 23.62 52.2407 23.62 69.5714C23.62 86.9021 37.6693 100.951 55 100.951Z" fill="#FFD56B" stroke="#FFAE20" stroke-width="2" stroke-miterlimit="10"/>
<path opacity="0.4" d="M47.1801 48.3907C47.1801 44.7107 50.6801 41.7207 55.0001 41.7207C59.3201 41.7207 62.8201 44.7107 62.8201 48.3907C62.8201 52.0707 59.3201 55.0607 55.0001 55.0607C50.6801 55.0607 47.1801 52.0707 47.1801 48.3907ZM55.0001 49.5207C56.3701 49.5207 57.4801 47.9207 57.4801 45.9407C57.4801 43.9607 56.3701 42.3607 55.0001 42.3607C53.6301 42.3607 52.5201 43.9607 52.5201 45.9407C52.5201 47.9207 53.6301 49.5207 55.0001 49.5207Z" fill="#FF9700"/>
<path opacity="0.15" d="M54.84 30.8008C33.56 30.8008 16.3 48.0508 16.3 69.3408C16.3 80.0008 20.63 89.6508 27.63 96.6308L82.1301 42.1308C75.1501 35.1308 65.5 30.8008 54.84 30.8008Z" fill="white"/>
</g>
<defs>
<clipPath id="clip0_581_8776">
<rect width="110" height="110" fill="white"/>
</clipPath>
</defs>
</svg>
