<svg width="56" height="56" viewBox="0 0 56 56" fill="none" xmlns="http://www.w3.org/2000/svg">
<rect width="56" height="56" rx="20" fill="#F5F5F5"/>
<g clip-path="url(#clip0_581_7404)">
<path d="M36.6857 19.1426H19.3143C18.418 19.1426 17.6914 19.8692 17.6914 20.7654V39.5197C17.6914 40.416 18.418 41.1426 19.3143 41.1426H36.6857C37.582 41.1426 38.3086 40.416 38.3086 39.5197V20.7654C38.3086 19.8692 37.582 19.1426 36.6857 19.1426Z" fill="#E6F4FC"/>
<path d="M36.6857 41.988H19.3143C17.9429 41.988 16.8343 40.8794 16.8343 39.508V20.7652C16.8343 19.3937 17.9429 18.2852 19.3143 18.2852H36.6971C38.0686 18.2852 39.1771 19.3937 39.1771 20.7652V39.5194C39.1771 40.8909 38.0686 41.9994 36.6971 41.9994L36.6857 41.988ZM19.3143 19.9994C18.8914 19.9994 18.5486 20.3423 18.5486 20.7652V39.5194C18.5486 39.9423 18.8914 40.2852 19.3143 40.2852H36.6971C37.12 40.2852 37.4629 39.9423 37.4629 39.5194V20.7652C37.4629 20.3423 37.12 19.9994 36.6971 19.9994H19.3143Z" fill="#222222"/>
<path d="M33.8514 26.9258H22.1371V28.0686H33.8514V26.9258Z" fill="#D1E3E8"/>
<path d="M33.8514 31.4512H22.1371V32.594H33.8514V31.4512Z" fill="#D1E3E8"/>
<path d="M33.8514 35.9766H22.1371V37.1194H33.8514V35.9766Z" fill="#D1E3E8"/>
<path d="M33.8514 25.5312H22.1371V27.2455H33.8514V25.5312Z" fill="#2ABC2A"/>
<path d="M33.8514 30.0684H22.1371V31.7826H33.8514V30.0684Z" fill="#2ABC2A"/>
<path d="M33.8514 34.5938H22.1371V36.308H33.8514V34.5938Z" fill="#2ABC2A"/>
<path d="M30.5486 17.3831C30.5486 17.2917 30.5486 17.2117 30.5486 17.1203C30.5486 15.8746 29.4057 14.8574 28 14.8574C26.5943 14.8574 25.4514 15.8746 25.4514 17.1203C25.4514 17.2117 25.4514 17.2917 25.4514 17.3831H22.5029V20.126C22.5029 21.0289 23.3257 21.7603 24.3429 21.7603H31.6686C32.6857 21.7603 33.5086 21.0289 33.5086 20.126V17.3831H30.56H30.5486Z" fill="#90A4AE"/>
<path d="M31.6572 22.6171H24.3429C22.8572 22.6171 21.6457 21.4971 21.6457 20.1257V17.3829C21.6457 16.9143 22.0343 16.5257 22.5029 16.5257H24.6629C24.9714 15.0857 26.3543 14 28 14C29.6457 14 31.04 15.0857 31.3372 16.5257H33.4972C33.9657 16.5257 34.3543 16.9143 34.3543 17.3829V20.1257C34.3543 21.4971 33.1429 22.6171 31.6572 22.6171ZM23.36 18.24V20.1257C23.36 20.5486 23.8057 20.9029 24.3429 20.9029H31.6572C32.1943 20.9029 32.64 20.5486 32.64 20.1257V18.24H30.5486C30.08 18.24 29.6914 17.8514 29.6914 17.3829V17.12C29.6914 16.3429 28.9372 15.7143 28 15.7143C27.0629 15.7143 26.3086 16.3429 26.3086 17.12V17.3829C26.3086 17.8514 25.9314 18.24 25.4514 18.24H23.36Z" fill="#222222"/>
</g>
<defs>
<clipPath id="clip0_581_7404">
<rect width="32" height="32" fill="white" transform="translate(12 12)"/>
</clipPath>
</defs>
</svg>
