<svg width="56" height="56" viewBox="0 0 56 56" fill="none" xmlns="http://www.w3.org/2000/svg">
<rect width="56" height="56" rx="20" fill="#F5F5F5"/>
<g clip-path="url(#clip0_581_7325)">
<path d="M36.5486 15.7949H19.4514C18.5552 15.7949 17.8286 16.5215 17.8286 17.4178V38.5835C17.8286 39.4798 18.5552 40.2064 19.4514 40.2064H36.5486C37.4449 40.2064 38.1714 39.4798 38.1714 38.5835V17.4178C38.1714 16.5215 37.4449 15.7949 36.5486 15.7949Z" fill="white"/>
<path d="M36.56 41.0632H19.4514C18.08 41.0632 16.9714 39.9546 16.9714 38.5832V17.4175C16.9714 16.0461 18.08 14.9375 19.4514 14.9375H36.56C37.9314 14.9375 39.04 16.0461 39.04 17.4175V38.5832C39.04 39.9546 37.9314 41.0632 36.56 41.0632ZM19.4514 16.6518C19.0286 16.6518 18.6857 16.9946 18.6857 17.4175V38.5832C18.6857 39.0061 19.0286 39.3489 19.4514 39.3489H36.56C36.9829 39.3489 37.3257 39.0061 37.3257 38.5832V17.4175C37.3257 16.9946 36.9829 16.6518 36.56 16.6518H19.4514Z" fill="#222222"/>
<path d="M19.4514 15.7949H36.56C37.4514 15.7949 38.1829 16.5264 38.1829 17.4178V22.3435H17.8286V17.4178C17.8286 16.5264 18.56 15.7949 19.4514 15.7949Z" fill="#F74141"/>
<path d="M38.1714 23.2004H17.8286C17.36 23.2004 16.9714 22.8118 16.9714 22.3432V17.4175C16.9714 16.0461 18.08 14.9375 19.4514 14.9375H36.56C37.9314 14.9375 39.04 16.0461 39.04 17.4175V22.3432C39.04 22.8118 38.6514 23.2004 38.1829 23.2004H38.1714ZM18.6857 21.4861H37.3143V17.4175C37.3143 16.9946 36.9714 16.6518 36.5486 16.6518H19.4514C19.0286 16.6518 18.6857 16.9946 18.6857 17.4175V21.4861Z" fill="#222222"/>
<path opacity="0.1" d="M37.9771 24.5266V22.3438H17.8171V24.5266H37.9771Z" fill="#222222"/>
<path opacity="0.1" d="M37.9886 17.7727V15.5898L17.8286 15.5898V17.7727H37.9886Z" fill="#222222"/>
<path d="M25.3371 25.7246H21.0628V29.9989H25.3371V25.7246Z" fill="#FFC943"/>
<path d="M25.3486 30.7424H21.0743C20.6628 30.7424 20.3314 30.411 20.3314 29.9996V25.7253C20.3314 25.3139 20.6628 24.9824 21.0743 24.9824H25.3486C25.76 24.9824 26.0914 25.3139 26.0914 25.7253V29.9996C26.0914 30.411 25.76 30.7424 25.3486 30.7424ZM21.8171 29.2567H24.6057V26.4681H21.8171V29.2567Z" fill="#222222"/>
<path d="M25.3371 32.7539H21.0628V37.0282H25.3371V32.7539Z" fill="#FFC943"/>
<path d="M25.3486 37.7717H21.0743C20.6628 37.7717 20.3314 37.4403 20.3314 37.0289V32.7546C20.3314 32.3431 20.6628 32.0117 21.0743 32.0117H25.3486C25.76 32.0117 26.0914 32.3431 26.0914 32.7546V37.0289C26.0914 37.4403 25.76 37.7717 25.3486 37.7717ZM21.8171 36.286H24.6057V33.4974H21.8171V36.286Z" fill="#222222"/>
<path d="M32.64 32.7539H28.3657V37.0282H32.64V32.7539Z" fill="#FFC943"/>
<path d="M32.64 37.7717H28.3657C27.9543 37.7717 27.6229 37.4403 27.6229 37.0289V32.7546C27.6229 32.3431 27.9543 32.0117 28.3657 32.0117H32.64C33.0514 32.0117 33.3829 32.3431 33.3829 32.7546V37.0289C33.3829 37.4403 33.0514 37.7717 32.64 37.7717ZM29.1086 36.286H31.8971V33.4974H29.1086V36.286Z" fill="#222222"/>
</g>
<defs>
<clipPath id="clip0_581_7325">
<rect width="32" height="32" fill="white" transform="translate(12 12)"/>
</clipPath>
</defs>
</svg>
