<svg width="56" height="56" viewBox="0 0 56 56" fill="none" xmlns="http://www.w3.org/2000/svg">
<rect width="56" height="56" rx="20" fill="#F5F5F5"/>
<g clip-path="url(#clip0_581_7311)">
<path d="M15.76 33.0966V25.7366L20.9486 19.3709L31.7143 22.9023L40.24 17.4395V33.0966H15.76Z" fill="#425CCC"/>
<path d="M40.24 33.9541H15.76C15.2915 33.9541 14.9029 33.5655 14.9029 33.0969V25.7369C14.9029 25.5426 14.9715 25.3484 15.0972 25.1998L20.2858 18.8341C20.5143 18.5598 20.88 18.4455 21.2115 18.5598L31.5886 21.9655L39.76 16.7198C40.0229 16.5484 40.3543 16.5369 40.6286 16.6855C40.9029 16.8341 41.0743 17.1198 41.0743 17.4398V33.0969C41.0743 33.5655 40.6858 33.9541 40.2172 33.9541H40.24ZM16.6172 32.2398H39.3829V19.0055L32.1829 23.6226C31.9658 23.7598 31.7029 23.7941 31.4515 23.7141L21.2458 20.3655L16.6172 26.0455V32.2398Z" fill="#222222"/>
<path opacity="0.1" d="M40.6629 18.2617C40.3771 18.1131 40.0343 18.1245 39.76 18.296L31.6 23.5302L21.2343 20.136C20.8914 20.0217 20.5029 20.136 20.2743 20.4217L15.0743 26.776C14.9486 26.936 14.88 27.1302 14.88 27.336V29.4845C14.88 29.2788 14.9486 29.0845 15.0743 28.9245L20.2629 22.5588C20.4914 22.2731 20.88 22.1588 21.2229 22.2731L31.5886 25.6674L39.7486 20.4331C40.0229 20.2617 40.3657 20.2502 40.6514 20.3988C40.9371 20.5588 41.1086 20.856 41.1086 21.176V19.0274C41.1086 18.7074 40.9371 18.4102 40.6514 18.2502L40.6629 18.2617Z" fill="#222222"/>
<path d="M15.76 38.5595V31.1995L24.2972 25.8052L31.7143 29.7366L40.24 22.9023V38.5595H15.76Z" fill="#00D2E2"/>
<path d="M40.24 39.417H15.76C15.2915 39.417 14.9029 39.0284 14.9029 38.5598V31.1998C14.9029 30.9027 15.0515 30.6284 15.3029 30.4798L23.84 25.0855C24.1029 24.9255 24.4229 24.9141 24.6972 25.0513L31.6229 28.7198L39.7029 22.2398C39.9658 22.0341 40.32 21.9998 40.6058 22.137C40.9029 22.2741 41.0972 22.5827 41.0972 22.9141V38.5713C41.0972 39.0398 40.7086 39.4284 40.24 39.4284V39.417ZM16.6172 37.7027H39.3829V24.6855L32.2629 30.3998C32 30.617 31.6229 30.6513 31.3258 30.4913L24.3429 26.7884L16.6286 31.6684V37.7027H16.6172Z" fill="#222222"/>
<path opacity="0.1" d="M40.6172 23.2806C40.3086 23.132 39.9429 23.1777 39.68 23.3834L31.6114 29.8634L24.7086 26.1949C24.4229 26.0463 24.0914 26.0577 23.8172 26.2292L15.28 31.6234C15.0286 31.7834 14.8686 32.0692 14.8686 32.3663V35.2692C14.8686 34.972 15.0286 34.6863 15.28 34.5263L23.8172 29.132C24.08 28.9606 24.4229 28.9492 24.7086 29.0977L31.6114 32.7663L39.68 26.2863C39.9429 26.0692 40.3086 26.0349 40.6172 26.1834C40.9257 26.332 41.12 26.6406 41.12 26.9834V24.0806C41.12 23.7377 40.9257 23.4292 40.6172 23.2806Z" fill="#222222"/>
</g>
<defs>
<clipPath id="clip0_581_7311">
<rect width="32" height="32" fill="white" transform="translate(12 12)"/>
</clipPath>
</defs>
</svg>
