<svg width="30" height="30" viewBox="0 0 30 30" fill="none" xmlns="http://www.w3.org/2000/svg">
<circle cx="15" cy="15" r="15" fill="#516075"/>
<g clip-path="url(#clip0_450_5911)">
<path fill-rule="evenodd" clip-rule="evenodd" d="M19.4936 17.1406C19.14 16.6585 18.465 16.5556 17.9828 16.9092C17.9507 16.9285 17.925 16.9542 17.8993 16.9799C17.4878 17.3013 17.0764 17.6227 16.6714 17.957C16.5878 18.047 16.4528 18.0599 16.3564 17.9827C16.1314 17.8285 15.8807 17.6999 15.6686 17.5392C14.6786 16.7677 13.8236 15.8356 13.1421 14.7877C12.7821 14.2799 12.4993 13.7206 12.3064 13.1227C12.2614 13.0199 12.3 12.8977 12.3964 12.8399C12.8078 12.5249 13.2064 12.2035 13.6114 11.8756C14.0871 11.5735 14.2286 10.9435 13.9264 10.4677C13.8814 10.4035 13.8364 10.3392 13.7786 10.2877C13.5214 9.97918 13.2578 9.6706 12.9943 9.34918C12.7307 9.02775 12.4607 8.69989 12.1843 8.37846C11.8243 7.89632 11.1428 7.79989 10.6607 8.15989C10.635 8.17918 10.6093 8.19846 10.5836 8.21775C10.1721 8.53918 9.77356 8.87346 9.34928 9.18846C8.97642 9.45846 8.72571 9.86989 8.65499 10.3263C8.53928 11.0656 8.59713 11.8242 8.82213 12.5442C9.23999 14.0356 9.91499 15.437 10.8214 16.6906C12.0171 18.4135 13.5664 19.8663 15.3664 20.9463C16.17 21.467 17.0764 21.827 18.0214 21.9942C18.6578 22.1292 19.32 21.962 19.8086 21.5313C20.1621 21.2163 20.5607 20.9335 20.9336 20.6377C21.4093 20.3292 21.5443 19.6927 21.2357 19.2235C21.1971 19.1656 21.1521 19.1142 21.1071 19.0627C20.5736 18.4199 20.0336 17.7835 19.5 17.1406H19.4936Z" fill="white"/>
</g>
<defs>
<clipPath id="clip0_450_5911">
<rect width="18" height="18" fill="white" transform="translate(6 6)"/>
</clipPath>
</defs>
</svg>
