<svg width="22" height="22" viewBox="0 0 22 22" fill="none" xmlns="http://www.w3.org/2000/svg">
<g clip-path="url(#clip0_445_3904)">
<path d="M11 3.97999C8.81629 3.97958 6.68533 4.65109 4.89636 5.90336C3.10739 7.15564 1.74706 8.92804 1 10.98C1.74616 13.033 3.1061 14.8065 4.89514 16.0599C6.68419 17.3132 8.81563 17.9855 11 17.9855C13.1844 17.9855 15.3158 17.3132 17.1049 16.0599C18.8939 14.8065 20.2538 13.033 21 10.98C20.2554 8.92642 18.8957 7.1524 17.1062 5.89973C15.3166 4.64707 13.1844 3.9767 11 3.97999ZM11 15.49C10.112 15.49 9.24387 15.2267 8.50549 14.7333C7.76712 14.2399 7.19161 13.5387 6.85178 12.7182C6.51194 11.8978 6.42304 10.995 6.59628 10.124C6.76953 9.25306 7.19717 8.45302 7.8251 7.82509C8.45304 7.19715 9.25308 6.76951 10.1241 6.59626C10.995 6.42302 11.8978 6.51195 12.7183 6.85179C13.5387 7.19163 14.2399 7.7671 14.7333 8.50547C15.2267 9.24385 15.49 10.1119 15.49 11C15.49 12.1908 15.017 13.3329 14.1749 14.1749C13.3329 15.0169 12.1908 15.49 11 15.49Z" fill="#DF0029"/>
<path d="M11 8.75C10.555 8.75 10.12 8.88198 9.74996 9.12921C9.37995 9.37644 9.09156 9.72784 8.92126 10.139C8.75096 10.5501 8.70642 11.0025 8.79324 11.439C8.88006 11.8754 9.09435 12.2763 9.40902 12.591C9.72369 12.9057 10.1246 13.12 10.5611 13.2068C10.9975 13.2936 11.4499 13.249 11.861 13.0787C12.2722 12.9084 12.6236 12.62 12.8708 12.25C13.118 11.88 13.25 11.445 13.25 11C13.25 10.4033 13.013 9.83098 12.591 9.40903C12.169 8.98707 11.5967 8.75 11 8.75Z" fill="#DF0029"/>
</g>
<defs>
<clipPath id="clip0_445_3904">
<rect width="22" height="22" fill="white"/>
</clipPath>
</defs>
</svg>
