<svg width="20" height="20" viewBox="0 0 20 20" fill="none" xmlns="http://www.w3.org/2000/svg">
<circle cx="10" cy="10" r="9.5" fill="white" stroke="#EBEBEB"/>
<g clip-path="url(#clip0_370_5521)">
<path d="M12.9782 13.9286C13.2757 14.2168 13.7505 14.2092 14.0387 13.9117C14.3269 13.6141 14.3193 13.1393 14.0218 12.8511L12.9782 13.9286ZM7.0218 6.07114C6.72427 5.78295 6.24945 5.79054 5.96127 6.08807C5.67309 6.3856 5.68067 6.86041 5.9782 7.14859L7.0218 6.07114ZM14.0218 12.8511L7.0218 6.07114L5.9782 7.14859L12.9782 13.9286L14.0218 12.8511Z" fill="#595959"/>
<path d="M5.9782 12.8511C5.68067 13.1393 5.67309 13.6141 5.96127 13.9117C6.24945 14.2092 6.72427 14.2168 7.0218 13.9286L5.9782 12.8511ZM14.0218 7.14859C14.3193 6.86041 14.3269 6.3856 14.0387 6.08807C13.7505 5.79054 13.2757 5.78295 12.9782 6.07114L14.0218 7.14859ZM7.0218 13.9286L14.0218 7.14859L12.9782 6.07114L5.9782 12.8511L7.0218 13.9286Z" fill="#595959"/>
</g>
<defs>
<clipPath id="clip0_370_5521">
<rect width="12" height="12" fill="white" transform="translate(4 4)"/>
</clipPath>
</defs>
</svg>
