<svg width="24" height="24" viewBox="0 0 24 24" fill="none" xmlns="http://www.w3.org/2000/svg">
<g clip-path="url(#clip0_581_8296)">
<path d="M19.78 16.7303L19.55 16.5803C18.04 15.5703 17.49 14.9403 17.4 13.3603L17.21 9.48031C17.19 9.14031 17.14 8.80031 17.05 8.48031C16.46 6.18031 14.38 4.57031 12 4.57031C9.61997 4.57031 7.53997 6.18031 6.94997 8.48031C6.86997 8.81031 6.80997 9.14031 6.78997 9.49031L6.59997 13.3603C6.50997 14.9503 5.95997 15.5803 4.44997 16.5903L4.21997 16.7403V19.0903H19.78V16.7403V16.7303Z" stroke="#222222" stroke-width="1.5"/>
<path d="M12 4.55938V2.35938" stroke="#222222" stroke-width="1.5"/>
<path d="M14.79 19.0703C14.79 20.6103 13.54 21.8603 12 21.8603C10.46 21.8603 9.20996 20.6103 9.20996 19.0703" stroke="#222222" stroke-width="1.5"/>
</g>
<defs>
<clipPath id="clip0_581_8296">
<rect width="24" height="24" fill="white"/>
</clipPath>
</defs>
</svg>
