<svg width="24" height="24" viewBox="0 0 24 24" fill="none" xmlns="http://www.w3.org/2000/svg">
<g clip-path="url(#clip0_125_2336)">
<path d="M21.3501 12.2695H6.69014C6.24831 12.2695 5.89014 12.6277 5.89014 13.0695V20.9995C5.89014 21.4414 6.24831 21.7995 6.69014 21.7995H21.3501C21.792 21.7995 22.1501 21.4414 22.1501 20.9995V13.0695C22.1501 12.6277 21.792 12.2695 21.3501 12.2695Z" stroke="#222222" stroke-width="1.5"/>
<path d="M4.3201 17.9299H2.5001C2.1401 17.9299 1.8501 17.6399 1.8501 17.2799V4.77988C1.8501 4.41988 2.1401 4.12988 2.5001 4.12988H9.2901C9.6501 4.12988 9.9401 4.41988 9.9401 4.77988V10.8199" stroke="#222222" stroke-width="1.5"/>
<path d="M11.3501 2.2002H14.5701C16.9401 2.2002 18.8501 4.3802 18.8501 7.0702V9.6102" stroke="#222222" stroke-width="1.5"/>
<path d="M16.0701 6.90039L18.8501 9.88039L21.6401 6.90039" stroke="#222222" stroke-width="1.5" stroke-linejoin="round"/>
</g>
<defs>
<clipPath id="clip0_125_2336">
<rect width="24" height="24" fill="white"/>
</clipPath>
</defs>
</svg>
