<svg width="16" height="16" viewBox="0 0 16 16" fill="none" xmlns="http://www.w3.org/2000/svg">
<g clip-path="url(#clip0_450_5173)">
<path d="M15.977 6.16383C15.9219 5.99411 15.7752 5.87042 15.5987 5.8448L10.6386 5.12402L8.42034 0.629444C8.3414 0.469445 8.17843 0.368164 8.00003 0.368164C7.82159 0.368164 7.65865 0.469445 7.57968 0.629444L5.36132 5.12402L0.401338 5.8448C0.224808 5.87042 0.0780893 5.99411 0.0229645 6.1638C-0.0321915 6.33352 0.0138083 6.5198 0.141589 6.64433L3.73057 10.1429L2.88345 15.0829C2.85327 15.2588 2.92558 15.4365 3.06992 15.5414C3.15158 15.6007 3.2483 15.6309 3.34548 15.6309C3.42011 15.6309 3.49498 15.6131 3.56354 15.5771L8 13.2446L12.4363 15.577C12.5942 15.6601 12.7856 15.6463 12.9299 15.5414C13.0743 15.4365 13.1466 15.2588 13.1164 15.0829L12.269 10.1429L15.8584 6.6443C15.9862 6.5198 16.0322 6.33352 15.977 6.16383Z" fill="#868A91"/>
</g>
<defs>
<clipPath id="clip0_450_5173">
<rect width="16" height="16" fill="white"/>
</clipPath>
</defs>
</svg>
