<svg width="20" height="20" viewBox="0 0 20 20" fill="none" xmlns="http://www.w3.org/2000/svg">
<circle cx="10" cy="10" r="10" fill="#272727"/>
<path d="M12.6602 13.6213C12.9577 13.9095 13.4325 13.9019 13.7207 13.6044C14.0089 13.3068 14.0013 12.832 13.7038 12.5439L12.6602 13.6213ZM7.34016 6.38022C7.04262 6.09204 6.56781 6.09962 6.27963 6.39715C5.99145 6.69468 5.99903 7.16949 6.29656 7.45767L7.34016 6.38022ZM13.7038 12.5439L7.34016 6.38022L6.29656 7.45767L12.6602 13.6213L13.7038 12.5439Z" fill="white"/>
<path d="M6.29656 12.5439C5.99903 12.832 5.99145 13.3068 6.27963 13.6044C6.56781 13.9019 7.04262 13.9095 7.34016 13.6213L6.29656 12.5439ZM13.7038 7.45767C14.0013 7.16949 14.0089 6.69468 13.7207 6.39715C13.4325 6.09962 12.9577 6.09204 12.6602 6.38022L13.7038 7.45767ZM7.34016 13.6213L13.7038 7.45767L12.6602 6.38022L6.29656 12.5439L7.34016 13.6213Z" fill="white"/>
</svg>
