<svg width="56" height="56" viewBox="0 0 56 56" fill="none" xmlns="http://www.w3.org/2000/svg">
<rect width="56" height="56" rx="20" fill="#F5F5F5"/>
<g clip-path="url(#clip0_581_7265)">
<path d="M36.6171 21.1653V37.8282C36.6171 38.8682 35.7714 39.7139 34.7314 39.7139H18.1599C17.1199 39.7139 16.2742 38.8682 16.2742 37.8282V17.1767C16.2742 16.1367 17.1199 15.291 18.1599 15.291H30.7314" fill="white"/>
<path d="M34.7314 40.5822H18.16C16.64 40.5822 15.4171 39.3479 15.4171 37.8393V17.1765C15.4171 15.6565 16.6514 14.4336 18.16 14.4336H30.7314C31.2 14.4336 31.5885 14.8222 31.5885 15.2907C31.5885 15.7593 31.2 16.1479 30.7314 16.1479H18.16C17.5885 16.1479 17.1314 16.6165 17.1314 17.1765V37.8279C17.1314 38.3993 17.6 38.8565 18.16 38.8565H34.7314C35.3028 38.8565 35.76 38.3879 35.76 37.8279V21.165C35.76 20.6965 36.1485 20.3079 36.6171 20.3079C37.0857 20.3079 37.4743 20.6965 37.4743 21.165V37.8279C37.4743 39.3479 36.24 40.5707 34.7314 40.5707V40.5822Z" fill="#222222"/>
<path d="M25.8971 25.4291H20.0914C19.6228 25.4291 19.2343 25.0406 19.2343 24.572C19.2343 24.1034 19.6228 23.7148 20.0914 23.7148H25.9085C26.3771 23.7148 26.7657 24.1034 26.7657 24.572C26.7657 25.0406 26.3771 25.4291 25.9085 25.4291H25.8971Z" fill="#6550F9"/>
<path d="M25.8971 29.6108H20.0914C19.6228 29.6108 19.2343 29.2222 19.2343 28.7536C19.2343 28.2851 19.6228 27.8965 20.0914 27.8965H25.9085C26.3771 27.8965 26.7657 28.2851 26.7657 28.7536C26.7657 29.2222 26.3771 29.6108 25.9085 29.6108H25.8971Z" fill="#6550F9"/>
<path opacity="0.1" d="M35.3714 23.5895H30.1029C29.1771 23.5895 28.4229 22.8352 28.4229 21.9095V16.6409C28.4229 15.7152 29.1771 14.9609 30.1029 14.9609L37.0514 21.9095C37.0514 22.8352 36.2971 23.5895 35.3714 23.5895Z" fill="#222222"/>
<path d="M36.6171 21.165H30.7314V15.2793L36.6171 21.165Z" fill="white"/>
<path d="M36.6171 22.0229H30.7314C30.2628 22.0229 29.8743 21.6344 29.8743 21.1658V15.2801C29.8743 14.9372 30.08 14.6172 30.4 14.4915C30.72 14.3658 31.0857 14.4343 31.3371 14.6743L37.2228 20.5601C37.4628 20.8001 37.5428 21.1772 37.4057 21.4972C37.2686 21.8172 36.96 22.0229 36.6171 22.0229ZM31.5886 20.3086H34.5486L31.5886 17.3486V20.3086Z" fill="#222222"/>
<path d="M33.4628 41.0394C36.9217 41.0394 39.7257 38.2354 39.7257 34.7765C39.7257 31.3176 36.9217 28.5137 33.4628 28.5137C30.0039 28.5137 27.2 31.3176 27.2 34.7765C27.2 38.2354 30.0039 41.0394 33.4628 41.0394Z" fill="#9FE6FF"/>
<path d="M33.4628 41.8963C29.5314 41.8963 26.3428 38.7077 26.3428 34.7763C26.3428 30.8448 29.5314 27.6562 33.4628 27.6562C37.3943 27.6562 40.5828 30.8448 40.5828 34.7763C40.5828 38.7077 37.3943 41.8963 33.4628 41.8963ZM33.4628 29.3705C30.48 29.3705 28.0571 31.7934 28.0571 34.7763C28.0571 37.7591 30.48 40.182 33.4628 40.182C36.4457 40.182 38.8685 37.7591 38.8685 34.7763C38.8685 31.7934 36.4457 29.3705 33.4628 29.3705Z" fill="#222222"/>
<path d="M33.4628 35.7597H30.8686C30.4 35.7597 30.0114 35.3712 30.0114 34.9026C30.0114 34.434 30.4 34.0454 30.8686 34.0454H32.6057V31.154C32.6057 30.6854 32.9943 30.2969 33.4628 30.2969C33.9314 30.2969 34.32 30.6854 34.32 31.154V34.9026C34.32 35.3712 33.9314 35.7597 33.4628 35.7597Z" fill="#222222"/>
</g>
<defs>
<clipPath id="clip0_581_7265">
<rect width="32" height="32" fill="white" transform="translate(12 12)"/>
</clipPath>
</defs>
</svg>
