<svg width="12" height="12" viewBox="0 0 12 12" fill="none" xmlns="http://www.w3.org/2000/svg">
<g clip-path="url(#clip0_405_3720)">
<path d="M8.9782 9.92871C9.27573 10.2169 9.75055 10.2093 10.0387 9.91178C10.3269 9.61425 10.3193 9.13944 10.0218 8.85126L8.9782 9.92871ZM3.0218 2.07126C2.72427 1.78308 2.24945 1.79066 1.96127 2.08819C1.67309 2.38572 1.68067 2.86053 1.9782 3.14871L3.0218 2.07126ZM10.0218 8.85126L3.0218 2.07126L1.9782 3.14871L8.9782 9.92871L10.0218 8.85126Z" fill="#9E9E9E"/>
<path d="M1.9782 8.85126C1.68067 9.13944 1.67309 9.61425 1.96127 9.91178C2.24945 10.2093 2.72427 10.2169 3.0218 9.92871L1.9782 8.85126ZM10.0218 3.14871C10.3193 2.86053 10.3269 2.38572 10.0387 2.08819C9.75055 1.79066 9.27573 1.78308 8.9782 2.07126L10.0218 3.14871ZM3.0218 9.92871L10.0218 3.14871L8.9782 2.07126L1.9782 8.85126L3.0218 9.92871Z" fill="#9E9E9E"/>
</g>
<defs>
<clipPath id="clip0_405_3720">
<rect width="12" height="12" fill="white"/>
</clipPath>
</defs>
</svg>
