<svg width="56" height="56" viewBox="0 0 56 56" fill="none" xmlns="http://www.w3.org/2000/svg">
<rect width="56" height="56" rx="20" fill="#F5F5F5"/>
<g clip-path="url(#clip0_581_7372)">
<path d="M27.4743 16.9043C27.4743 16.9043 27.4171 16.9043 27.3943 16.9043C20.9257 16.8929 15.68 22.1386 15.68 28.6072C15.68 35.0757 20.9257 40.3215 27.3943 40.3215C33.8629 40.3215 39.1086 35.0757 39.1086 28.6072C39.1086 28.5843 39.1086 28.55 39.1086 28.5272H27.4743V16.9043Z" fill="#2AD12E"/>
<path d="M27.3943 41.1783C20.4686 41.1783 14.8228 35.544 14.8228 28.6069C14.8228 21.6697 20.4686 16.0469 27.3943 16.0469C27.44 16.0469 27.52 16.0469 27.5543 16.0583C28.0228 16.0583 28.3314 16.4354 28.3314 16.9154V27.6697H39.0971C39.5657 27.6697 39.9543 28.0583 39.9543 28.5269C39.9543 35.544 34.32 41.1783 27.3943 41.1783ZM26.6171 17.7726C21.0286 18.1383 16.5371 22.8583 16.5371 28.6069C16.5371 34.3554 21.4057 39.464 27.3943 39.464C33.3828 39.464 37.8171 35.0069 38.2171 29.384H27.4743C27.0057 29.384 26.6171 28.9954 26.6171 28.5269V17.7726Z" fill="#222222"/>
<path d="M31.2 15.6797V24.7997H40.32C40.2857 19.7825 36.2286 15.714 31.2 15.6797Z" fill="#FFB600"/>
<path d="M40.32 25.6574H31.2C30.7314 25.6574 30.3428 25.2688 30.3428 24.8003V15.6803C30.3428 15.4517 30.4343 15.2346 30.5943 15.0746C30.7543 14.9146 30.9371 14.8117 31.2 14.8231C36.6628 14.8574 41.1314 19.3374 41.1657 24.7888C41.1657 25.0174 41.0743 25.2346 40.9143 25.3946C40.7543 25.5546 40.5371 25.646 40.3086 25.646L40.32 25.6574ZM32.0571 23.9431H39.4057C38.9714 20.1031 35.8971 17.0174 32.0571 16.5946V23.9431Z" fill="#222222"/>
<path opacity="0.1" d="M27.4743 28.5268L19.0971 36.8697C19.0971 36.8697 11.3486 27.5097 20.1143 19.4411C20.1143 19.4411 26.7314 16.024 27.1086 17.544L27.4857 28.5268H27.4743Z" fill="#222222"/>
</g>
<defs>
<clipPath id="clip0_581_7372">
<rect width="32" height="32" fill="white" transform="translate(12 12)"/>
</clipPath>
</defs>
</svg>
