<svg width="24" height="24" viewBox="0 0 24 24" fill="none" xmlns="http://www.w3.org/2000/svg">
<circle cx="12" cy="12" r="11" fill="white" stroke="#F2F2F2" stroke-width="2"/>
<g clip-path="url(#clip0_291_4676)">
<path d="M14.66 15.6206C14.9576 15.9088 15.4324 15.9012 15.7206 15.6036C16.0088 15.3061 16.0012 14.8313 15.7036 14.5431L14.66 15.6206ZM9.34 8.37948C9.04247 8.0913 8.56766 8.09888 8.27948 8.39642C7.9913 8.69395 7.99888 9.16876 8.29641 9.45694L9.34 8.37948ZM15.7036 14.5431L9.34 8.37948L8.29641 9.45694L14.66 15.6206L15.7036 14.5431Z" fill="#595959"/>
<path d="M8.29641 14.5431C7.99888 14.8313 7.9913 15.3061 8.27948 15.6036C8.56766 15.9012 9.04247 15.9088 9.34 15.6206L8.29641 14.5431ZM15.7036 9.45694C16.0012 9.16876 16.0088 8.69395 15.7206 8.39642C15.4324 8.09888 14.9576 8.0913 14.66 8.37948L15.7036 9.45694ZM9.34 15.6206L15.7036 9.45694L14.66 8.37948L8.29641 14.5431L9.34 15.6206Z" fill="#595959"/>
</g>
<defs>
<clipPath id="clip0_291_4676">
<rect width="10.9091" height="10.9091" fill="white" transform="translate(6.54548 6.54541)"/>
</clipPath>
</defs>
</svg>
