<svg width="24" height="24" viewBox="0 0 24 24" fill="none" xmlns="http://www.w3.org/2000/svg">
<g clip-path="url(#clip0_556_4845)">
<path d="M2.64999 21.7998L17.31 21.7998C17.7518 21.7998 18.11 21.4416 18.11 20.9998V13.0698C18.11 12.628 17.7518 12.2698 17.31 12.2698L2.64999 12.2698C2.20816 12.2698 1.84999 12.628 1.84999 13.0698V20.9998C1.84999 21.4416 2.20816 21.7998 2.64999 21.7998Z" stroke="#222222" stroke-width="1.5"/>
<path d="M19.6799 17.9299H21.4999C21.8599 17.9299 22.1499 17.6399 22.1499 17.2799V4.77988C22.1499 4.41988 21.8599 4.12988 21.4999 4.12988H14.7099C14.3499 4.12988 14.0599 4.41988 14.0599 4.77988V10.8199" stroke="#222222" stroke-width="1.5"/>
<path d="M3.91003 10.5997V8.49973C3.91003 6.12973 6.09003 4.21973 8.78003 4.21973H11.32" stroke="#222222" stroke-width="1.5"/>
<path d="M8.60999 6.99969L11.58 4.21969L8.60999 1.42969" stroke="#222222" stroke-width="1.5" stroke-linejoin="round"/>
</g>
<defs>
<clipPath id="clip0_556_4845">
<rect width="24" height="24" fill="white"/>
</clipPath>
</defs>
</svg>
