<svg width="56" height="56" viewBox="0 0 56 56" fill="none" xmlns="http://www.w3.org/2000/svg">
<rect width="56" height="56" rx="20" fill="#F5F5F5"/>
<g clip-path="url(#clip0_581_7386)">
<path d="M28 39.5781C34.3939 39.5781 39.5771 34.3948 39.5771 28.001C39.5771 21.6071 34.3939 16.4238 28 16.4238C21.6061 16.4238 16.4229 21.6071 16.4229 28.001C16.4229 34.3948 21.6061 39.5781 28 39.5781Z" fill="#9FE6FF"/>
<path d="M28 40.435C21.1428 40.435 15.5657 34.8578 15.5657 28.0007C15.5657 21.1435 21.1428 15.5664 28 15.5664C34.8571 15.5664 40.4343 21.1435 40.4343 28.0007C40.4343 34.8578 34.8571 40.435 28 40.435ZM28 17.2807C22.0914 17.2807 17.28 22.0921 17.28 28.0007C17.28 33.9093 22.0914 38.7207 28 38.7207C33.9086 38.7207 38.72 33.9093 38.72 28.0007C38.72 22.0921 33.9086 17.2807 28 17.2807Z" fill="#222222"/>
<path d="M28 29.087H23.2114C22.7429 29.087 22.3543 28.6984 22.3543 28.2298C22.3543 27.7613 22.7429 27.3727 23.2114 27.3727H27.1428V21.2927C27.1428 20.8241 27.5314 20.4355 28 20.4355C28.4686 20.4355 28.8571 20.8241 28.8571 21.2927V28.2298C28.8571 28.6984 28.4686 29.087 28 29.087Z" fill="#222222"/>
<path opacity="0.1" d="M33.8514 39.8634C37.5249 39.8634 40.5028 36.8855 40.5028 33.212C40.5028 29.5385 37.5249 26.5605 33.8514 26.5605C30.1779 26.5605 27.2 29.5385 27.2 33.212C27.2 36.8855 30.1779 39.8634 33.8514 39.8634Z" fill="#222222"/>
<path d="M34.8343 39.5774C37.9649 39.5774 40.5029 37.0395 40.5029 33.9088C40.5029 30.7781 37.9649 28.2402 34.8343 28.2402C31.7036 28.2402 29.1657 30.7781 29.1657 33.9088C29.1657 37.0395 31.7036 39.5774 34.8343 39.5774Z" fill="white"/>
<path d="M34.8343 40.4342C31.2343 40.4342 28.3086 37.5085 28.3086 33.9085C28.3086 30.3085 31.2343 27.3828 34.8343 27.3828C38.4343 27.3828 41.36 30.3085 41.36 33.9085C41.36 37.5085 38.4343 40.4342 34.8343 40.4342ZM34.8343 29.0857C32.1828 29.0857 30.0228 31.2457 30.0228 33.8971C30.0228 36.5485 32.1828 38.7085 34.8343 38.7085C37.4857 38.7085 39.6457 36.5485 39.6457 33.8971C39.6457 31.2457 37.4857 29.0857 34.8343 29.0857Z" fill="#222222"/>
<path d="M34.2057 36.2293H34.1943C33.9543 36.2293 33.7257 36.115 33.5657 35.9322L32.1028 34.2407C31.7943 33.8865 31.8285 33.3379 32.1943 33.0293C32.5485 32.7207 33.0971 32.755 33.4057 33.1207L34.24 34.0807L36.3085 31.8522C36.6285 31.5093 37.1771 31.4865 37.52 31.8065C37.8628 32.1265 37.8857 32.675 37.5657 33.0179L34.8457 35.955C34.6857 36.1265 34.4571 36.2293 34.2171 36.2293H34.2057Z" fill="#FF4D4D"/>
</g>
<defs>
<clipPath id="clip0_581_7386">
<rect width="32" height="32" fill="white" transform="translate(12 12)"/>
</clipPath>
</defs>
</svg>
