<svg width="24" height="24" viewBox="0 0 24 24" fill="none" xmlns="http://www.w3.org/2000/svg">
<circle cx="12" cy="12" r="11" fill="white" stroke="#F2F2F2" stroke-width="2"/>
<g clip-path="url(#clip0_185_6114)">
<path d="M14.66 15.6203C14.9575 15.9085 15.4323 15.9009 15.7205 15.6034C16.0087 15.3059 16.0011 14.8311 15.7035 14.5429L14.66 15.6203ZM9.33991 8.37924C9.04238 8.09106 8.56757 8.09864 8.27939 8.39617C7.99121 8.6937 7.99879 9.16852 8.29632 9.4567L9.33991 8.37924ZM15.7035 14.5429L9.33991 8.37924L8.29632 9.4567L14.66 15.6203L15.7035 14.5429Z" fill="#DF0029"/>
<path d="M8.29632 14.5429C7.99879 14.8311 7.99121 15.3059 8.27939 15.6034C8.56757 15.9009 9.04238 15.9085 9.33991 15.6203L8.29632 14.5429ZM15.7035 9.4567C16.0011 9.16852 16.0087 8.6937 15.7205 8.39617C15.4323 8.09864 14.9575 8.09106 14.66 8.37924L15.7035 9.4567ZM9.33991 15.6203L15.7035 9.4567L14.66 8.37924L8.29632 14.5429L9.33991 15.6203Z" fill="#DF0029"/>
</g>
<defs>
<clipPath id="clip0_185_6114">
<rect width="10.9091" height="10.9091" fill="white" transform="translate(6.54541 6.54541)"/>
</clipPath>
</defs>
</svg>
