<svg width="56" height="56" viewBox="0 0 56 56" fill="none" xmlns="http://www.w3.org/2000/svg">
<rect width="56" height="56" rx="20" fill="#F5F5F5"/>
<g clip-path="url(#clip0_581_7285)">
<path d="M32.8914 15.8184H16.72C15.6848 15.8184 14.8457 16.6575 14.8457 17.6926V38.3212C14.8457 39.3564 15.6848 40.1955 16.72 40.1955H32.8914C33.9266 40.1955 34.7657 39.3564 34.7657 38.3212V17.6926C34.7657 16.6575 33.9266 15.8184 32.8914 15.8184Z" fill="white"/>
<path d="M32.8914 41.0409H16.72C15.2114 41.0409 13.9886 39.8181 13.9886 38.3095V17.6924C13.9886 16.1838 15.2114 14.9609 16.72 14.9609H32.8914C34.4 14.9609 35.6229 16.1838 35.6229 17.6924V38.3095C35.6229 39.8181 34.4 41.0409 32.8914 41.0409ZM16.72 16.6752C16.16 16.6752 15.7029 17.1324 15.7029 17.6924V38.3095C15.7029 38.8695 16.16 39.3267 16.72 39.3267H32.8914C33.4514 39.3267 33.9086 38.8695 33.9086 38.3095V17.6924C33.9086 17.1324 33.4514 16.6752 32.8914 16.6752H16.72Z" fill="#222222"/>
<path d="M36.24 19.1209C38.6629 16.2752 42.8457 19.8409 40.4115 22.6867L30.64 34.1381C29.1772 35.8524 24.72 36.8467 24.72 36.8467C24.72 36.8467 24.9943 32.2867 26.4686 30.5724L36.24 19.1209Z" fill="#FCA027"/>
<path d="M24.72 37.7031C24.5143 37.7031 24.32 37.6345 24.16 37.4974C23.9543 37.326 23.84 37.0631 23.8629 36.7888C23.8972 36.2974 24.2057 31.8974 25.8057 30.0117L35.5886 18.5602C37.1429 16.7317 39.3486 16.9488 40.7086 18.1145C41.4172 18.7202 41.8743 19.5431 41.9886 20.4117C42.08 21.1088 41.9886 22.1602 41.0743 23.2345L31.2914 34.686C29.6914 36.5602 25.3943 37.566 24.9029 37.6688C24.8457 37.6802 24.7772 37.6917 24.72 37.6917V37.7031ZM38.3429 18.9374C37.8514 18.9374 37.3372 19.1545 36.8914 19.6802L27.12 31.1317C26.3314 32.0574 25.8972 34.206 25.7029 35.7031C27.1543 35.2688 29.2 34.5145 30 33.5774L39.7829 22.126C40.6514 21.1088 40.32 20.0345 39.6114 19.4174C39.2686 19.1202 38.8229 18.9374 38.3657 18.9374H38.3429Z" fill="#222222"/>
<path d="M31.7714 32.8235L30.6514 34.1378C29.1886 35.8521 24.7314 36.8464 24.7314 36.8464C24.7314 36.8464 24.8457 34.9035 25.3372 33.075C25.6 32.1035 25.9657 31.1664 26.4686 30.5721L27.5886 29.2578L31.76 32.8235H31.7714Z" fill="#FCEBCA"/>
<path d="M24.72 37.7032C24.5143 37.7032 24.32 37.6347 24.16 37.4975C23.9543 37.3261 23.84 37.0632 23.8629 36.789C23.8629 36.709 23.9886 34.7318 24.5029 32.8461C24.8457 31.5661 25.28 30.6404 25.8172 30.0118L26.9372 28.6975C27.0857 28.5261 27.2914 28.4118 27.52 28.4004C27.7486 28.4004 27.9657 28.4575 28.1486 28.6061L32.32 32.1718C32.6743 32.4804 32.72 33.0175 32.4114 33.3832L31.2914 34.6975C29.6914 36.5718 25.3943 37.5775 24.9029 37.6804C24.8457 37.6918 24.7772 37.7032 24.72 37.7032ZM27.68 30.469L27.1086 31.1318C26.8572 31.429 26.4914 32.0347 26.1486 33.2918C25.92 34.1375 25.7714 35.0175 25.6914 35.7032C27.1429 35.269 29.1886 34.5147 29.9772 33.589L30.5486 32.9261L27.68 30.469Z" fill="#222222"/>
<path d="M24.72 36.8455L28.0457 36.1483L24.88 33.4512L24.72 36.8455Z" fill="#222222"/>
<path opacity="0.1" d="M39.8809 19.0767L38.0731 17.5332L24.5525 33.3694L26.3603 34.9129L39.8809 19.0767Z" fill="#222222"/>
<path d="M25.8857 21.7143H19.0857C18.6171 21.7143 18.2286 21.3257 18.2286 20.8571C18.2286 20.3886 18.6171 20 19.0857 20H25.8857C26.3543 20 26.7429 20.3886 26.7429 20.8571C26.7429 21.3257 26.3543 21.7143 25.8857 21.7143Z" fill="#FCA027"/>
<path d="M22.9943 25.9076H19.0857C18.6171 25.9076 18.2286 25.5191 18.2286 25.0505C18.2286 24.5819 18.6171 24.1934 19.0857 24.1934H22.9943C23.4629 24.1934 23.8514 24.5819 23.8514 25.0505C23.8514 25.5191 23.4629 25.9076 22.9943 25.9076Z" fill="#FCA027"/>
<path d="M22.9943 30.1147H19.0857C18.6171 30.1147 18.2286 29.7261 18.2286 29.2575C18.2286 28.789 18.6171 28.4004 19.0857 28.4004H22.9943C23.4629 28.4004 23.8514 28.789 23.8514 29.2575C23.8514 29.7261 23.4629 30.1147 22.9943 30.1147Z" fill="#FCA027"/>
<path opacity="0.1" d="M24.72 37.6698H34.7657V29.8184L30.2743 34.5041L24.72 37.6698Z" fill="#222222"/>
</g>
<defs>
<clipPath id="clip0_581_7285">
<rect width="32" height="32" fill="white" transform="translate(12 12)"/>
</clipPath>
</defs>
</svg>
