<svg width="56" height="56" viewBox="0 0 56 56" fill="none" xmlns="http://www.w3.org/2000/svg">
<rect width="56" height="56" rx="20" fill="#F5F5F5"/>
<g clip-path="url(#clip0_581_7350)">
<path d="M39.0857 27.4531H29.4743C28.578 27.4531 27.8514 28.1797 27.8514 29.076V37.6131C27.8514 38.5094 28.578 39.236 29.4743 39.236H39.0857C39.982 39.236 40.7086 38.5094 40.7086 37.6131V29.076C40.7086 28.1797 39.982 27.4531 39.0857 27.4531Z" fill="#E8A334"/>
<path d="M39.0857 40.0928H29.4743C28.1029 40.0928 26.9943 38.9843 26.9943 37.6128V29.0757C26.9943 27.7043 28.1029 26.5957 29.4743 26.5957H39.0857C40.4572 26.5957 41.5657 27.7043 41.5657 29.0757V37.6128C41.5657 38.9843 40.4572 40.0928 39.0857 40.0928ZM29.4743 28.31C29.0514 28.31 28.7086 28.6528 28.7086 29.0757V37.6128C28.7086 38.0357 29.0514 38.3786 29.4743 38.3786H39.0857C39.5086 38.3786 39.8514 38.0357 39.8514 37.6128V29.0757C39.8514 28.6528 39.5086 28.31 39.0857 28.31H29.4743Z" fill="#222222"/>
<path d="M34.9714 15.5215H25.3828C24.4866 15.5215 23.76 16.2481 23.76 17.1443V25.8301C23.76 26.7263 24.4866 27.4529 25.3828 27.4529H34.9714C35.8677 27.4529 36.5943 26.7263 36.5943 25.8301V17.1443C36.5943 16.2481 35.8677 15.5215 34.9714 15.5215Z" fill="#EFC17F"/>
<path d="M34.9714 28.3095H25.3714C24 28.3095 22.8914 27.2009 22.8914 25.8295V17.1323C22.8914 15.7609 24 14.6523 25.3714 14.6523H34.9714C36.3428 14.6523 37.4514 15.7609 37.4514 17.1323V25.8295C37.4514 27.2009 36.3428 28.3095 34.9714 28.3095ZM25.3714 16.3781C24.9486 16.3781 24.6057 16.7209 24.6057 17.1438V25.8409C24.6057 26.2638 24.9486 26.6066 25.3714 26.6066H34.9714C35.3943 26.6066 35.7371 26.2638 35.7371 25.8409V17.1323C35.7371 16.7095 35.3943 16.3666 34.9714 16.3666H25.3714V16.3781Z" fill="#222222"/>
<path d="M30.6286 23.6934H16.9143C16.018 23.6934 15.2914 24.4199 15.2914 25.3162V37.6134C15.2914 38.5096 16.018 39.2362 16.9143 39.2362H30.6286C31.5249 39.2362 32.2514 38.5096 32.2514 37.6134V25.3162C32.2514 24.4199 31.5249 23.6934 30.6286 23.6934Z" fill="#FFC661"/>
<path d="M30.64 40.0931H16.9143C15.5429 40.0931 14.4343 38.9845 14.4343 37.6131V25.3159C14.4343 23.9445 15.5429 22.8359 16.9143 22.8359H30.64C32.0114 22.8359 33.12 23.9445 33.12 25.3159V37.6131C33.12 38.9845 32.0114 40.0931 30.64 40.0931ZM16.9143 24.5502C16.4914 24.5502 16.1486 24.8931 16.1486 25.3159V37.6131C16.1486 38.0359 16.4914 38.3788 16.9143 38.3788H30.64C31.0629 38.3788 31.4057 38.0359 31.4057 37.6131V25.3159C31.4057 24.8931 31.0629 24.5502 30.64 24.5502H16.9143Z" fill="#222222"/>
<path d="M19.4972 27.4531H28.1486C28.3886 27.4531 28.5829 27.6474 28.5829 27.8874V29.4074C28.5829 30.3674 27.8057 31.1331 26.8572 31.1331H20.7886C19.8286 31.1331 19.0629 30.356 19.0629 29.4074V27.8874C19.0629 27.6474 19.2572 27.4531 19.4972 27.4531Z" fill="#DBA752"/>
<path d="M26.5943 26.8926H21.0629C20.3686 26.8926 19.8057 27.4554 19.8057 28.1497C19.8057 28.844 20.3686 29.4069 21.0629 29.4069H26.5943C27.2886 29.4069 27.8514 28.844 27.8514 28.1497C27.8514 27.4554 27.2886 26.8926 26.5943 26.8926Z" fill="white"/>
<path d="M26.5943 30.2637H21.0629C19.8971 30.2637 18.9486 29.3152 18.9486 28.1494C18.9486 26.9837 19.8971 26.0352 21.0629 26.0352H26.5829C27.7486 26.0352 28.6971 26.9837 28.6971 28.1494C28.6971 29.3152 27.7486 30.2637 26.5829 30.2637H26.5943ZM21.0743 27.7494C20.8571 27.7494 20.6743 27.9323 20.6743 28.1494C20.6743 28.3666 20.8571 28.5494 21.0743 28.5494H26.5943C26.8114 28.5494 26.9943 28.3666 26.9943 28.1494C26.9943 27.9323 26.8114 27.7494 26.5943 27.7494H21.0629H21.0743Z" fill="#222222"/>
<path d="M42.2286 36.3223H13.7829V40.4937H42.2286V36.3223Z" fill="#7C4131"/>
<path d="M42.2172 41.3388H13.7829C13.3143 41.3388 12.9257 40.9503 12.9257 40.4817V36.3103C12.9257 35.8417 13.3143 35.4531 13.7829 35.4531H42.2172C42.6857 35.4531 43.0743 35.8417 43.0743 36.3103V40.4817C43.0743 40.9503 42.6857 41.3388 42.2172 41.3388ZM14.6286 39.6246H41.36V37.1674H14.64V39.6246H14.6286Z" fill="#222222"/>
</g>
<defs>
<clipPath id="clip0_581_7350">
<rect width="32" height="32" fill="white" transform="translate(12 12)"/>
</clipPath>
</defs>
</svg>
