<svg width="22" height="22" viewBox="0 0 22 22" fill="none" xmlns="http://www.w3.org/2000/svg">
<rect x="0.5" y="0.5" width="21" height="21" rx="4.5" fill="#D2D9E7" stroke="#DBE0EA"/>
<path d="M9.42681 15.3604L5.27682 10.8204C5.08719 10.6122 4.98803 10.3372 5.00116 10.0559C5.01428 9.77455 5.13863 9.50998 5.34683 9.32035C5.55502 9.13072 5.83002 9.03156 6.11132 9.04469C6.39263 9.05782 6.6572 9.18217 6.84683 9.39036L9.46682 12.2704L15.2868 6.27037C15.4865 6.09159 15.7464 5.99506 16.0143 6.00019C16.2822 6.00533 16.5383 6.11172 16.7309 6.29802C16.9235 6.48431 17.0384 6.73665 17.0525 7.00425C17.0666 7.27186 16.9788 7.53488 16.8068 7.74037L9.42681 15.3604Z" fill="#B6BECD"/>
</svg>
