<svg width="26" height="26" viewBox="0 0 26 26" fill="none" xmlns="http://www.w3.org/2000/svg">
<rect width="26" height="26" rx="8" fill="#0267FF"/>
<g clip-path="url(#clip0_581_5128)">
<path d="M12.8164 5C10.897 5 9.34243 6.55459 9.34243 8.47395C9.34243 10.3933 10.897 11.9479 12.8164 11.9479C14.7357 11.9479 16.2903 10.3933 16.2903 8.47395C16.2903 6.55459 14.7357 5 12.8164 5ZM12.8164 12.9206C10.2109 12.9206 5 14.232 5 16.8288V19H11.4789L12.0608 15.5261L11.6266 14.6576L12.8251 13.7891L14.0236 14.6576L13.5893 15.5261L14.1712 19H20.6501V16.8288C20.6501 14.232 15.4392 12.9206 12.8337 12.9206H12.8164Z" fill="white"/>
</g>
<defs>
<clipPath id="clip0_581_5128">
<rect width="15.6328" height="14" fill="white" transform="translate(5 5)"/>
</clipPath>
</defs>
</svg>
