<svg width="28" height="28" viewBox="0 0 28 28" fill="none" xmlns="http://www.w3.org/2000/svg">
<g clip-path="url(#clip0_185_7232)">
<path d="M23.2099 14V23.87C23.2099 24.65 22.5699 25.29 21.7899 25.29H6.20992C5.42992 25.29 4.78992 24.65 4.78992 23.87V14" stroke="#8F96A0" stroke-width="1.5" stroke-miterlimit="10"/>
<path d="M23.49 7.84009H4.51998C3.73573 7.84009 3.09998 8.47584 3.09998 9.26009V12.7901C3.09998 13.5743 3.73573 14.2101 4.51998 14.2101H23.49C24.2742 14.2101 24.91 13.5743 24.91 12.7901V9.26009C24.91 8.47584 24.2742 7.84009 23.49 7.84009Z" stroke="#8F96A0" stroke-width="1.5" stroke-miterlimit="10"/>
<path d="M13.61 7.39005C12.72 8.29005 10.49 7.52005 9.58995 6.63005C8.68995 5.74005 8.68995 4.28005 9.57995 3.39005C10.47 2.50005 11.93 2.49005 12.82 3.38005C13.71 4.27005 14.5 6.50005 13.61 7.40005V7.39005Z" stroke="#8F96A0" stroke-width="1.5" stroke-linejoin="round"/>
<path d="M14.3899 7.39005C15.2799 8.29005 17.5099 7.52005 18.4099 6.63005C19.3099 5.74005 19.3099 4.28005 18.4199 3.39005C17.5299 2.50005 16.0699 2.49005 15.1799 3.38005C14.2899 4.27005 13.4999 6.50005 14.3899 7.40005V7.39005Z" stroke="#8F96A0" stroke-width="1.5" stroke-linejoin="round"/>
<path d="M16.9 7.84009H11.1V14.2101H16.9V7.84009Z" stroke="#8F96A0" stroke-width="1.5" stroke-miterlimit="10"/>
<path d="M16.2199 14.2H11.7899V25.29H16.2199V14.2Z" stroke="#8F96A0" stroke-width="1.5" stroke-miterlimit="10"/>
</g>
<defs>
<clipPath id="clip0_185_7232">
<rect width="28" height="28" fill="white"/>
</clipPath>
</defs>
</svg>
