<svg width="50" height="50" viewBox="0 0 50 50" fill="none" xmlns="http://www.w3.org/2000/svg">
<g clip-path="url(#clip0_370_7320)">
<path d="M23.0375 44.6623C33.7518 44.6623 42.4375 35.9766 42.4375 25.2623C42.4375 14.548 33.7518 5.8623 23.0375 5.8623C12.3231 5.8623 3.63745 14.548 3.63745 25.2623C3.63745 35.9766 12.3231 44.6623 23.0375 44.6623Z" fill="#D5E6FF" stroke="#0063F8" stroke-width="2.5" stroke-miterlimit="10"/>
<path d="M23.0374 14.0249V25.6499L14.2749 25.7374" stroke="#0063F8" stroke-width="2.5" stroke-linecap="round" stroke-linejoin="round"/>
<path d="M36.875 44.6747C41.9767 44.6747 46.1124 40.5389 46.1124 35.4372C46.1124 30.3355 41.9767 26.1997 36.875 26.1997C31.7732 26.1997 27.6375 30.3355 27.6375 35.4372C27.6375 40.5389 31.7732 44.6747 36.875 44.6747Z" fill="white" stroke="#0063F8" stroke-width="2.5" stroke-linecap="round" stroke-linejoin="round"/>
<path d="M39.85 30.6499H33.8875C33.4125 30.6499 33.0125 31.0374 33.0125 31.5249V39.7749C33.0125 40.2499 33.4 40.6499 33.8875 40.6499H35.4625V39.1749H38.2625V40.6499H39.8375C40.3125 40.6499 40.7125 40.2624 40.7125 39.7749V31.5249C40.7125 31.0499 40.325 30.6499 39.8375 30.6499H39.85ZM39.1875 36.0874H34.5625V34.8374H39.1875V36.0874ZM39.1875 33.5749H34.5625V32.3249H39.1875V33.5749Z" fill="#0063F8"/>
</g>
<defs>
<clipPath id="clip0_370_7320">
<rect width="50" height="50" fill="white"/>
</clipPath>
</defs>
</svg>
