<svg width="40" height="40" viewBox="0 0 40 40" fill="none" xmlns="http://www.w3.org/2000/svg">
<circle cx="20" cy="20" r="20" fill="#F5F5F5"/>
<g clip-path="url(#clip0_185_7411)">
<path d="M28.7515 13.9314H11.2401C10.5679 13.9314 10.0229 14.4763 10.0229 15.1485V27.8257C10.0229 28.4979 10.5679 29.0428 11.2401 29.0428H28.7515C29.4237 29.0428 29.9687 28.4979 29.9687 27.8257V15.1485C29.9687 14.4763 29.4237 13.9314 28.7515 13.9314Z" stroke="#898E98" stroke-width="1.5" stroke-linecap="round"/>
<path d="M20 25.6914C22.3196 25.6914 24.2 23.811 24.2 21.4914C24.2 19.1718 22.3196 17.2914 20 17.2914C17.6805 17.2914 15.8 19.1718 15.8 21.4914C15.8 23.811 17.6805 25.6914 20 25.6914Z" stroke="#898E98" stroke-width="1.5" stroke-linecap="round"/>
<path d="M12.4487 13.9314V12.1143C12.4487 11.48 12.9716 10.9572 13.6059 10.9572H16.4773C17.1116 10.9572 17.6344 11.48 17.6344 12.1143V13.9314" stroke="#898E98" stroke-width="1.5" stroke-linecap="round"/>
</g>
<defs>
<clipPath id="clip0_185_7411">
<rect width="24" height="24" fill="white" transform="translate(8 8)"/>
</clipPath>
</defs>
</svg>
