<svg width="24" height="24" viewBox="0 0 24 24" fill="none" xmlns="http://www.w3.org/2000/svg">
<g clip-path="url(#clip0_581_7067)">
<path d="M12.01 21.4591C17.2347 21.4591 21.47 17.2237 21.47 11.9991C21.47 6.77445 17.2347 2.53906 12.01 2.53906C6.78544 2.53906 2.55005 6.77445 2.55005 11.9991C2.55005 17.2237 6.78544 21.4591 12.01 21.4591Z" fill="#FFCE00" stroke="#222222" stroke-width="1.5" stroke-linejoin="round"/>
<path d="M7.70996 9.81836L9.85996 15.0184L12.01 9.81836" stroke="#222222" stroke-width="1.5" stroke-linecap="round" stroke-linejoin="round"/>
<path d="M12.01 9.81836L14.16 15.0184L16.3 9.81836" stroke="#222222" stroke-width="1.5" stroke-linecap="round" stroke-linejoin="round"/>
<path d="M8.77997 12.418H6.71997" stroke="#222222" stroke-width="1.5" stroke-linecap="round" stroke-linejoin="round"/>
<path d="M17.3 12.418H15.24" stroke="#222222" stroke-width="1.5" stroke-linecap="round" stroke-linejoin="round"/>
<path d="M18.0301 9.81906C20.0405 9.81906 21.6701 8.18938 21.6701 6.17906C21.6701 4.16875 20.0405 2.53906 18.0301 2.53906C16.0198 2.53906 14.3901 4.16875 14.3901 6.17906C14.3901 8.18938 16.0198 9.81906 18.0301 9.81906Z" fill="white" stroke="#222222" stroke-width="1.5" stroke-linejoin="round"/>
</g>
<defs>
<clipPath id="clip0_581_7067">
<rect width="24" height="24" fill="white"/>
</clipPath>
</defs>
</svg>
