<svg width="28" height="28" viewBox="0 0 28 28" fill="none" xmlns="http://www.w3.org/2000/svg">
<g clip-path="url(#clip0_185_7267)">
<path d="M25.87 10.8599V22.0499C25.87 23.1499 24.97 24.0399 23.88 24.0399H4.12C3.02 24.0399 2.13 23.1399 2.13 22.0499V10.8599" stroke="#8F96A0" stroke-width="1.5" stroke-miterlimit="10"/>
<path d="M10.42 7.65996V6.05996C10.42 4.89996 11.61 3.95996 13.05 3.95996H14.95C16.4 3.95996 17.58 4.90996 17.58 6.05996V7.65996" stroke="#8F96A0" stroke-width="1.5" stroke-miterlimit="10"/>
<path d="M18.02 16.49H9.97998" stroke="#8F96A0" stroke-width="1.5" stroke-miterlimit="10"/>
<path d="M7.00001 16.4899H6.57001C4.13001 16.4899 2.14001 14.4999 2.14001 12.0599V9.64991C2.14001 8.54991 3.04001 7.65991 4.13001 7.65991H23.88C24.98 7.65991 25.87 8.55991 25.87 9.64991V12.0599C25.87 14.4999 23.88 16.4899 21.44 16.4899H21.01" stroke="#8F96A0" stroke-width="1.5" stroke-miterlimit="10"/>
<path d="M9.98 16.03C9.98 15.2071 9.3129 14.54 8.49 14.54C7.6671 14.54 7 15.2071 7 16.03V17.26C7 18.0829 7.6671 18.75 8.49 18.75C9.3129 18.75 9.98 18.0829 9.98 17.26V16.03Z" stroke="#8F96A0" stroke-width="1.5" stroke-miterlimit="10"/>
<path d="M21 16.03C21 15.2071 20.3329 14.54 19.51 14.54C18.6871 14.54 18.02 15.2071 18.02 16.03V17.26C18.02 18.0829 18.6871 18.75 19.51 18.75C20.3329 18.75 21 18.0829 21 17.26V16.03Z" stroke="#8F96A0" stroke-width="1.5" stroke-miterlimit="10"/>
</g>
<defs>
<clipPath id="clip0_185_7267">
<rect width="28" height="28" fill="white"/>
</clipPath>
</defs>
</svg>
