<svg width="20" height="20" viewBox="0 0 20 20" fill="none" xmlns="http://www.w3.org/2000/svg">
<path d="M17.24 16.5599V13.4499L16.71 13.0999C15.55 12.3299 15.31 11.9699 15.25 10.9999L15.09 7.75988C15.07 7.42988 15.02 7.09988 14.94 6.77988C14.42 4.77988 12.75 3.31988 10.75 3.01988V1.87988H9.25001V3.01988C7.25001 3.31988 5.58001 4.77988 5.06001 6.77988C4.98001 7.09988 4.93001 7.42988 4.91001 7.76988L4.75001 10.9899C4.69001 11.9699 4.45001 12.3299 3.29001 13.0999L2.76001 13.4499V16.5599H7.03001C7.37001 17.8899 8.56001 18.8699 10 18.8699C11.44 18.8699 12.63 17.8799 12.97 16.5599H17.24ZM4.27001 14.2499C5.54001 13.3799 6.16001 12.6599 6.25001 11.0699L6.41001 7.84988C6.42001 7.60988 6.46001 7.37988 6.52001 7.14988C6.93001 5.55988 8.36001 4.44988 10.01 4.44988C11.66 4.44988 13.09 5.55988 13.5 7.14988C13.56 7.36988 13.59 7.60988 13.61 7.82988L13.77 11.0699C13.86 12.6499 14.49 13.3799 15.75 14.2399V15.0499H4.28001V14.2399L4.27001 14.2499ZM10 17.3699C9.41001 17.3699 8.90001 17.0399 8.63001 16.5599H11.37C11.1 17.0399 10.59 17.3699 10 17.3699Z" fill="#222222"/>
</svg>
