<svg width="60" height="60" viewBox="0 0 60 60" fill="none" xmlns="http://www.w3.org/2000/svg">
<g clip-path="url(#clip0_4_4887)">
<path d="M30 5.41992C16.43 5.41992 5.42004 16.4199 5.42004 29.9999C5.42004 43.5799 16.42 54.5799 30 54.5799C43.58 54.5799 54.58 43.5799 54.58 29.9999C54.58 16.4199 43.57 5.41992 30 5.41992ZM27.58 14.9399C27.67 14.8399 27.8 14.7899 27.94 14.7899H32.06C32.19 14.7899 32.32 14.8399 32.42 14.9399C32.51 15.0399 32.57 15.1699 32.56 15.2999L31.96 35.9099C31.96 36.1799 31.73 36.3999 31.46 36.3999H28.54C28.27 36.3999 28.05 36.1899 28.04 35.9099L27.44 15.2999C27.44 15.1699 27.49 15.0299 27.58 14.9399ZM30 45.1999C28.24 45.1999 26.97 43.8699 26.97 42.0399C26.97 40.2099 28.27 38.8799 30 38.8799C31.73 38.8799 33.03 40.1799 33.03 42.0399C33.03 43.8999 31.75 45.1999 30 45.1999Z" fill="black" fill-opacity="0.1"/>
</g>
<defs>
<clipPath id="clip0_4_4887">
<rect width="60" height="60" fill="white"/>
</clipPath>
</defs>
</svg>
