<svg width="40" height="40" viewBox="0 0 40 40" fill="none" xmlns="http://www.w3.org/2000/svg">
<circle cx="20" cy="20" r="20" fill="#F5F5F5"/>
<g clip-path="url(#clip0_581_6960)">
<path d="M29.4286 18.1738H9.75513C9.11493 18.1738 8.59595 18.6928 8.59595 19.333V28.5493C8.59595 29.1895 9.11493 29.7085 9.75513 29.7085H29.4286C30.0688 29.7085 30.5878 29.1895 30.5878 28.5493V19.333C30.5878 18.6928 30.0688 18.1738 29.4286 18.1738Z" fill="#A7694A" stroke="#222222" stroke-width="1.5" stroke-miterlimit="10"/>
<path d="M9.20825 16.6309H29.9674V23.186C29.9674 24.0839 29.2409 24.8186 28.3348 24.8186H10.8409C9.94295 24.8186 9.20825 24.0921 9.20825 23.186V16.6309Z" fill="#91573D"/>
<path d="M16.2695 14.5321V13.0545C16.2695 11.9851 17.3716 11.1035 18.7103 11.1035H20.4736C21.8124 11.1035 22.9144 11.977 22.9144 13.0545V14.5321" stroke="#222222" stroke-width="1.5" stroke-miterlimit="10"/>
<path d="M9.75513 14.5312H29.4286C30.0653 14.5312 30.5878 15.0537 30.5878 15.6904V19.4455C30.5878 21.2496 29.1266 22.7108 27.3225 22.7108H11.8613C10.0572 22.7108 8.59595 21.2496 8.59595 19.4455V15.6904C8.59595 15.0537 9.1184 14.5312 9.75513 14.5312Z" fill="#A7694A" stroke="#222222" stroke-width="1.5" stroke-miterlimit="10"/>
<path d="M15.0449 20.9082H13.9184C13.4675 20.9082 13.1021 21.2737 13.1021 21.7245V23.9939C13.1021 24.4448 13.4675 24.8102 13.9184 24.8102H15.0449C15.4958 24.8102 15.8612 24.4448 15.8612 23.9939V21.7245C15.8612 21.2737 15.4958 20.9082 15.0449 20.9082Z" fill="#FF9D00" stroke="#222222" stroke-width="1.5" stroke-miterlimit="10"/>
<path d="M25.2571 20.9082H24.1305C23.6797 20.9082 23.3142 21.2737 23.3142 21.7245V23.9939C23.3142 24.4448 23.6797 24.8102 24.1305 24.8102H25.2571C25.7079 24.8102 26.0734 24.4448 26.0734 23.9939V21.7245C26.0734 21.2737 25.7079 20.9082 25.2571 20.9082Z" fill="#FF9D00" stroke="#222222" stroke-width="1.5" stroke-miterlimit="10"/>
</g>
<defs>
<clipPath id="clip0_581_6960">
<rect width="24.4898" height="24.4898" fill="white" transform="translate(7.34692 8.16406)"/>
</clipPath>
</defs>
</svg>
