<svg width="74" height="74" viewBox="0 0 74 74" fill="none" xmlns="http://www.w3.org/2000/svg">
<rect width="74" height="74" rx="20" fill="#F5F5F5"/>
<g clip-path="url(#clip0_626_5774)">
<path d="M35.8914 21.1055H52.7319C53.8496 21.1055 54.7558 22.0117 54.7558 23.1293V48.1409H35.8914C34.7738 48.1409 33.8676 47.2347 33.8676 46.117V23.1293C33.8676 22.0117 34.7738 21.1055 35.8914 21.1055Z" fill="white"/>
<path d="M54.7406 49.2736H35.8914C34.1545 49.2736 32.7347 47.8539 32.7347 46.1169V23.1293C32.7347 21.3924 34.1545 19.9727 35.8914 19.9727H52.7319C54.4688 19.9727 55.8885 21.3924 55.8885 23.1293V48.1408C55.8885 48.7601 55.375 49.2736 54.7558 49.2736H54.7406ZM35.8914 22.2382C35.393 22.2382 35.0003 22.6309 35.0003 23.1293V46.1169C35.0003 46.6154 35.393 47.0081 35.8914 47.0081H53.623V23.1293C53.623 22.646 53.2303 22.2382 52.7319 22.2382H35.8914Z" fill="#222222"/>
<path d="M50.4965 26.7694H44.5306C43.9113 26.7694 43.3978 26.2559 43.3978 25.6367C43.3978 25.0174 43.9113 24.5039 44.5306 24.5039H50.4965C51.1158 24.5039 51.6293 25.0174 51.6293 25.6367C51.6293 26.2559 51.1158 26.7694 50.4965 26.7694Z" fill="#FB9F27"/>
<path d="M50.4965 31.3007H47.0679C46.4487 31.3007 45.9352 30.7872 45.9352 30.1679C45.9352 29.5487 46.4487 29.0352 47.0679 29.0352H50.4965C51.1157 29.0352 51.6292 29.5487 51.6292 30.1679C51.6292 30.7872 51.1157 31.3007 50.4965 31.3007Z" fill="#FB9F27"/>
<path d="M50.4965 35.8319H47.0679C46.4487 35.8319 45.9352 35.3184 45.9352 34.6992C45.9352 34.0799 46.4487 33.5664 47.0679 33.5664H50.4965C51.1157 33.5664 51.6292 34.0799 51.6292 34.6992C51.6292 35.3184 51.1157 35.8319 50.4965 35.8319Z" fill="#FB9F27"/>
<path d="M40.6188 31.0137H22.4946C21.3101 31.0137 20.3499 31.9739 20.3499 33.1584V49.4098C20.3499 50.5943 21.3101 51.5545 22.4946 51.5545H40.6188C41.8033 51.5545 42.7636 50.5943 42.7636 49.4098V33.1584C42.7636 31.9739 41.8033 31.0137 40.6188 31.0137Z" fill="#FFC561"/>
<path d="M40.6339 52.6873H22.4945C20.6821 52.6873 19.217 51.2222 19.217 49.4098V33.1583C19.217 31.3459 20.6821 29.8809 22.4945 29.8809H40.6339C42.4463 29.8809 43.9114 31.3459 43.9114 33.1583V49.4098C43.9114 51.2222 42.4463 52.6873 40.6339 52.6873ZM22.4945 32.1464C21.9357 32.1464 21.4826 32.5995 21.4826 33.1583V49.4098C21.4826 49.9686 21.9357 50.4217 22.4945 50.4217H40.6339C41.1927 50.4217 41.6458 49.9686 41.6458 49.4098V33.1583C41.6458 32.5995 41.1927 32.1464 40.6339 32.1464H22.4945Z" fill="#222222"/>
<path d="M25.9079 35.998H37.3413C37.6585 35.998 37.9153 36.2548 37.9153 36.572V38.5808C37.9153 39.8495 36.8882 40.8614 35.6346 40.8614H27.6146C26.3459 40.8614 25.334 39.8344 25.334 38.5808V36.572C25.334 36.2548 25.5907 35.998 25.9079 35.998Z" fill="#DAA652"/>
<path d="M35.2873 35.2422H27.9772C27.0596 35.2422 26.3158 35.986 26.3158 36.9036C26.3158 37.8211 27.0596 38.565 27.9772 38.565H35.2873C36.2049 38.565 36.9487 37.8211 36.9487 36.9036C36.9487 35.986 36.2049 35.2422 35.2873 35.2422Z" fill="white"/>
<path d="M35.2873 39.6977H27.9771C26.4366 39.6977 25.183 38.4441 25.183 36.9035C25.183 35.363 26.4366 34.1094 27.9771 34.1094H35.2722C36.8127 34.1094 38.0663 35.363 38.0663 36.9035C38.0663 38.4441 36.8127 39.6977 35.2722 39.6977H35.2873ZM27.9922 36.3749C27.7053 36.3749 27.4636 36.6166 27.4636 36.9035C27.4636 37.1905 27.7053 37.4322 27.9922 37.4322H35.2873C35.5742 37.4322 35.8159 37.1905 35.8159 36.9035C35.8159 36.6166 35.5742 36.3749 35.2873 36.3749H27.9771H27.9922Z" fill="#222222"/>
<path d="M55.949 48.1426H18.3562V53.6554H55.949V48.1426Z" fill="#7C4131"/>
<path d="M55.9338 54.7725H18.3562C17.7369 54.7725 17.2234 54.259 17.2234 53.6397V48.1269C17.2234 47.5077 17.7369 46.9941 18.3562 46.9941H55.9338C56.5531 46.9941 57.0666 47.5077 57.0666 48.1269V53.6397C57.0666 54.259 56.5531 54.7725 55.9338 54.7725ZM19.4738 52.5069H54.8011V49.2597H19.4889V52.5069H19.4738Z" fill="#222222"/>
</g>
<defs>
<clipPath id="clip0_626_5774">
<rect width="42.29" height="42.29" fill="white" transform="translate(16 16)"/>
</clipPath>
</defs>
</svg>
