<svg width="20" height="20" viewBox="0 0 20 20" fill="none" xmlns="http://www.w3.org/2000/svg">
<g clip-path="url(#clip0_476_4836)">
<path d="M13.4231 9.7769C13.4231 11.6692 11.8923 13.2 10 13.2C8.10769 13.2 6.57693 11.6692 6.57693 9.7769C6.57693 7.8846 8.10769 6.35383 10 6.35383C11.8923 6.35383 13.4231 7.8846 13.4231 9.7769ZM16.2923 10.8461V8.69998L17.5077 7.36921L15.8308 4.46921L14.0692 4.86152L12.2154 3.79229L11.6769 2.0769H8.32308L7.78462 3.79998L5.93846 4.86921L4.17692 4.4769L2.5 7.3769L3.71539 8.69998V10.8384L2.49231 12.1692L4.16154 15.0769L5.91539 14.6846L7.76923 15.7615L8.30769 17.4769H11.6615L12.2 15.7615L14.0615 14.6846L15.8231 15.0769L17.5 12.1769L16.2769 10.8461H16.2923Z" stroke="#595959" stroke-width="1.5" stroke-linecap="round" stroke-linejoin="round"/>
</g>
<defs>
<clipPath id="clip0_476_4836">
<rect width="20" height="20" fill="white"/>
</clipPath>
</defs>
</svg>
