<svg width="50" height="50" viewBox="0 0 50 50" fill="none" xmlns="http://www.w3.org/2000/svg">
<g clip-path="url(#clip0_370_7337)">
<path d="M23.0375 44.6623C33.7518 44.6623 42.4375 35.9766 42.4375 25.2623C42.4375 14.548 33.7518 5.8623 23.0375 5.8623C12.3231 5.8623 3.63745 14.548 3.63745 25.2623C3.63745 35.9766 12.3231 44.6623 23.0375 44.6623Z" fill="#FFEEE1" stroke="#FF6B00" stroke-width="2.5" stroke-miterlimit="10"/>
<path d="M23.0375 14.0249V25.6499L30.1625 31.4499" stroke="#FF6B00" stroke-width="2.5" stroke-linecap="round" stroke-linejoin="round"/>
<path d="M36.875 44.6747C41.9767 44.6747 46.1124 40.5389 46.1124 35.4372C46.1124 30.3355 41.9767 26.1997 36.875 26.1997C31.7732 26.1997 27.6375 30.3355 27.6375 35.4372C27.6375 40.5389 31.7732 44.6747 36.875 44.6747Z" fill="white" stroke="#FF6B00" stroke-width="2.5" stroke-linecap="round" stroke-linejoin="round"/>
<path d="M40.8499 33.562L37.4874 30.9495C37.1999 30.7245 36.7999 30.7245 36.5124 30.9495L33.1499 33.562C32.9499 33.712 32.8374 33.9495 32.8374 34.187V38.2995C32.8374 39.1495 33.5374 39.8495 34.3874 39.8495H35.3749C35.3749 39.8495 35.3749 39.8495 35.3749 39.8245V37.0495C35.3749 36.7995 35.5874 36.587 35.8374 36.587H38.1749C38.4249 36.587 38.6374 36.7995 38.6374 37.0495V39.8245C38.6374 39.8245 38.6374 39.8245 38.6374 39.8495H39.6249C40.4749 39.8495 41.1749 39.1495 41.1749 38.2995V34.187C41.1749 33.937 41.0624 33.712 40.8624 33.562H40.8499Z" fill="#FF6B00"/>
</g>
<defs>
<clipPath id="clip0_370_7337">
<rect width="50" height="50" fill="white"/>
</clipPath>
</defs>
</svg>
