<svg width="26" height="26" viewBox="0 0 26 26" fill="none" xmlns="http://www.w3.org/2000/svg">
<rect width="26" height="26" rx="8" fill="#FF7F02"/>
<path d="M7.65625 5.6875V7.2135L7.09375 7.86993V7.9375L6.53125 20.0312H19.4688L18.9062 7.9375V7.86993L18.3438 7.2135V5.6875H18.0625H17.5H8.5H7.9375H7.65625ZM9.0625 6.8125H16.9375V7.30194L17.4824 7.9375H8.51758L9.0625 7.30194V6.8125ZM10.1875 9.625H11.3125V10.1875C11.3125 11.1182 12.0693 11.875 13 11.875C13.9307 11.875 14.6875 11.1182 14.6875 10.1875V9.625H15.8125V10.1875C15.8125 11.7383 14.5508 13 13 13C11.4492 13 10.1875 11.7383 10.1875 10.1875V9.625Z" fill="white"/>
</svg>
