<svg width="28" height="28" viewBox="0 0 28 28" fill="none" xmlns="http://www.w3.org/2000/svg">
<g clip-path="url(#clip0_185_7258)">
<path d="M13.47 25.53C7.40997 25.53 2.46997 20.6 2.46997 14.53C2.46997 8.46003 7.40997 3.53003 13.47 3.53003C13.51 3.53003 13.58 3.53003 13.61 3.54003C14.02 3.54003 14.29 3.87003 14.29 4.29003V13.71H23.71C24.12 13.71 24.46 14.05 24.46 14.46C24.46 20.59 19.53 25.53 13.47 25.53ZM12.79 5.05003C7.89997 5.37003 3.96997 9.50003 3.96997 14.53C3.96997 19.56 8.22997 24.03 13.47 24.03C18.71 24.03 22.59 20.13 22.94 15.21H13.54C13.13 15.21 12.79 14.87 12.79 14.46V5.05003Z" fill="#8F96A0"/>
<path d="M24.7799 11.95H16.7999C16.3899 11.95 16.0499 11.61 16.0499 11.2V3.21997C16.0499 3.01997 16.1299 2.82997 16.2699 2.68997C16.4099 2.54997 16.5699 2.49997 16.7999 2.46997C21.5799 2.49997 25.4899 6.41997 25.5199 11.19C25.5199 11.39 25.4399 11.58 25.2999 11.72C25.1599 11.86 24.9699 11.94 24.7699 11.94L24.7799 11.95ZM17.5499 10.45H23.9799C23.5999 7.08997 20.9099 4.38997 17.5499 4.01997V10.45Z" fill="#8F96A0"/>
</g>
<defs>
<clipPath id="clip0_185_7258">
<rect width="28" height="28" fill="white"/>
</clipPath>
</defs>
</svg>
