<svg width="16" height="16" viewBox="0 0 16 16" fill="none" xmlns="http://www.w3.org/2000/svg">
<circle cx="8" cy="8" r="8" fill="#687082"/>
<path d="M8.90217 7.58233C8.90217 7.95566 8.78217 8.60011 8.54217 9.51566C8.30217 10.4223 8.18217 11.0179 8.18217 11.3023C8.18217 11.5779 8.22217 11.7157 8.30217 11.7157C8.3555 11.7157 8.55995 11.6312 8.9155 11.4623L9.0755 11.3823L9.30217 11.849C9.22217 11.9201 9.1155 12.009 8.98217 12.1157C8.84883 12.2223 8.59995 12.369 8.2355 12.5557C7.87106 12.7334 7.53328 12.8223 7.22217 12.8223C6.91106 12.8223 6.66661 12.729 6.48883 12.5423C6.31106 12.3468 6.22217 12.089 6.22217 11.769C6.22217 11.4401 6.33328 10.8623 6.5555 10.0357C6.77772 9.20011 6.88883 8.65789 6.88883 8.409C6.88883 8.03566 6.77328 7.68455 6.54217 7.35566L6.42217 7.19566L6.4355 7.02233C6.90661 6.889 7.67106 6.82233 8.72883 6.82233C8.84439 6.95566 8.90217 7.209 8.90217 7.58233ZM7.38217 5.369C7.20439 5.19122 7.1155 4.95566 7.1155 4.66233C7.1155 4.369 7.2355 4.11122 7.4755 3.889C7.72439 3.66677 8.00883 3.55566 8.32883 3.55566C8.64883 3.55566 8.89772 3.64455 9.0755 3.82233C9.25328 4.00011 9.34217 4.23566 9.34217 4.529C9.34217 4.81344 9.21328 5.06678 8.9555 5.289C8.70661 5.51122 8.42661 5.62233 8.1155 5.62233C7.80439 5.62233 7.55995 5.53789 7.38217 5.369Z" fill="white"/>
</svg>
