<svg width="26" height="26" viewBox="0 0 26 26" fill="none" xmlns="http://www.w3.org/2000/svg">
<rect width="26" height="26" rx="8" fill="#DF0029"/>
<path d="M6.92725 10.1783C6.92725 7.31783 9.64695 5 12.9999 5C16.3528 5 19.0725 7.31783 19.0725 10.1783C19.0725 13.0387 16.3542 15.3565 12.9999 15.3565C9.64559 15.3565 6.92725 13.0373 6.92725 10.1783ZM12.9999 11.0564C14.0648 11.0564 14.9294 9.81292 14.9294 8.27988C14.9294 6.74683 14.0661 5.50335 12.9999 5.50335C11.9337 5.50335 11.0704 6.74683 11.0704 8.27988C11.0704 9.81292 11.9337 11.0564 12.9999 11.0564Z" fill="white"/>
<path d="M4 20.5385H6.80009C6.98608 19.8822 7.07907 19.2437 7.07907 18.623V18.3757C7.07907 18.2594 7.0188 18.2012 6.89825 18.2012H4.7491V17.7066H7.07907C7.5027 17.7066 7.71451 17.9054 7.71451 18.303V18.5746C7.71451 19.234 7.61463 19.8887 7.41487 20.5385H8.41195V21.0476H4V20.5385Z" fill="white"/>
<path d="M12.4333 18.5261H9.90184V18.5843C9.90184 18.6812 9.96384 18.7297 10.0878 18.7297H12.4591V19.1807H9.90184C9.48166 19.1807 9.27156 18.9754 9.27156 18.5649V18.0848H11.803V17.886H9.27156V17.4302H12.4333V18.5261ZM10.5321 20.393V19.9081H8.65162V19.4474H13.0636V19.9081H11.1727V20.393H10.5321ZM9.30773 21.2125V20.2233H9.93801V20.5724H11.772V20.2233H12.4126V21.8089H9.93801C9.51782 21.8089 9.30773 21.6101 9.30773 21.2125ZM9.93801 21.1397C9.93801 21.2594 9.99656 21.3192 10.1137 21.3192H11.772V21.067H9.93801V21.1397Z" fill="white"/>
<path d="M15.752 18.4921C15.752 18.7928 15.6521 19.0385 15.4524 19.2292C15.2561 19.4167 14.9926 19.5104 14.6619 19.5104C14.3313 19.5104 14.0696 19.4167 13.8767 19.2292C13.6873 19.0385 13.5925 18.7928 13.5925 18.4921C13.5925 18.1947 13.6873 17.9571 13.8767 17.7793C14.0696 17.5983 14.3313 17.5077 14.6619 17.5077C14.9926 17.5077 15.2561 17.5983 15.4524 17.7793C15.6521 17.9571 15.752 18.1947 15.752 18.4921ZM15.1217 18.497C15.1217 18.358 15.0839 18.2416 15.0081 18.1478C14.9323 18.0508 14.8204 18.0024 14.6723 18.0024C14.5311 18.0024 14.4209 18.0508 14.3416 18.1478C14.2624 18.2416 14.2228 18.358 14.2228 18.497C14.2228 18.6457 14.2624 18.7701 14.3416 18.8704C14.4209 18.9673 14.5311 19.0158 14.6723 19.0158C14.8204 19.0158 14.9323 18.9673 15.0081 18.8704C15.0839 18.7701 15.1217 18.6457 15.1217 18.497ZM14.352 21.8089V20.3348C14.0523 20.3607 13.751 20.3704 13.4479 20.3639L13.3911 19.8208C14.3726 19.8337 15.2612 19.748 16.0568 19.5638V17.3574H16.6354V21.8089H16.0568V20.97H15.3594V20.4754H16.0568V19.9857C15.7124 20.0956 15.3542 20.1845 14.9823 20.2524V21.8089H14.352ZM16.8886 17.3574H17.4672V21.8574H16.8886V17.3574Z" fill="white"/>
<path d="M20.3623 20.0341C20.1384 20.3089 19.8405 20.4463 19.4686 20.4463C19.0966 20.4463 18.8038 20.3089 18.5903 20.0341C18.3768 19.7594 18.27 19.4086 18.27 18.9819C18.27 18.5552 18.3768 18.2109 18.5903 17.949C18.8038 17.6872 19.0966 17.5562 19.4686 17.5562C19.8405 17.5562 20.1384 17.6872 20.3623 17.949C20.5414 18.1624 20.643 18.4275 20.6671 18.7443H21.3697V17.3574H22V21.8574H21.3697V19.2389H20.6671C20.6396 19.5525 20.538 19.8176 20.3623 20.0341ZM20.0368 18.9819C20.0368 18.7136 19.9921 18.4921 19.9025 18.3176C19.813 18.1397 19.6718 18.0508 19.4789 18.0508C19.2929 18.0508 19.1517 18.1397 19.0553 18.3176C18.9623 18.4921 18.9158 18.7136 18.9158 18.9819C18.9158 19.2599 18.9623 19.491 19.0553 19.6753C19.1517 19.8596 19.2929 19.9517 19.4789 19.9517C19.6718 19.9517 19.813 19.8596 19.9025 19.6753C19.9921 19.491 20.0368 19.2599 20.0368 18.9819Z" fill="white"/>
</svg>
