<svg width="21" height="20" viewBox="0 0 21 20" fill="none" xmlns="http://www.w3.org/2000/svg">
<path d="M16.09 18.44H5.32003C4.06003 18.44 3.03003 17.41 3.03003 16.15V7.69C3.03003 7.46 3.14003 7.24 3.32003 7.1L10.24 1.72C10.51 1.51 10.89 1.51 11.16 1.72L18.08 7.1C18.26 7.24 18.37 7.46 18.37 7.69V16.15C18.37 17.41 17.34 18.44 16.08 18.44H16.09ZM4.53003 8.06V16.15C4.53003 16.59 4.88003 16.94 5.32003 16.94H16.09C16.53 16.94 16.88 16.59 16.88 16.15V8.06L10.71 3.26L4.54003 8.06H4.53003Z" fill="#222222"/>
<path d="M9.87012 14.2703H9.86012C9.65012 14.2703 9.45012 14.1703 9.31012 14.0103L7.34012 11.7403C7.07012 11.4303 7.10012 10.9503 7.41012 10.6803C7.72012 10.4103 8.20012 10.4403 8.47012 10.7503L9.89012 12.3903L12.9701 9.06035C13.2501 8.76035 13.7301 8.74035 14.0301 9.02035C14.3301 9.30035 14.3501 9.78035 14.0701 10.0803L10.4201 14.0203C10.2801 14.1703 10.0801 14.2603 9.87012 14.2603V14.2703Z" fill="#222222"/>
</svg>
