<svg width="40" height="40" viewBox="0 0 40 40" fill="none" xmlns="http://www.w3.org/2000/svg">
<circle cx="20" cy="20" r="20" fill="#F5F5F5"/>
<g clip-path="url(#clip0_185_7405)">
<path fill-rule="evenodd" clip-rule="evenodd" d="M25.9915 22.8543C25.5201 22.2114 24.6201 22.0743 23.9773 22.5457C23.9344 22.5714 23.9001 22.6057 23.8658 22.64C23.3173 23.0685 22.7687 23.4971 22.2287 23.9428C22.1173 24.0628 21.9373 24.08 21.8087 23.9771C21.5087 23.7714 21.1744 23.6 20.8915 23.3857C19.5715 22.3571 18.4315 21.1143 17.523 19.7171C17.043 19.04 16.6658 18.2943 16.4087 17.4971C16.3487 17.36 16.4001 17.1971 16.5287 17.12C17.0773 16.7 17.6087 16.2714 18.1487 15.8343C18.783 15.4314 18.9715 14.5914 18.5687 13.9571C18.5087 13.8714 18.4487 13.7857 18.3715 13.7171C18.0287 13.3057 17.6773 12.8943 17.3258 12.4657C16.9744 12.0371 16.6144 11.6 16.2458 11.1714C15.7658 10.5285 14.8573 10.4 14.2144 10.88C14.1801 10.9057 14.1458 10.9314 14.1115 10.9571C13.563 11.3857 13.0315 11.8314 12.4658 12.2514C11.9687 12.6114 11.6344 13.16 11.5401 13.7685C11.3858 14.7543 11.463 15.7657 11.763 16.7257C12.3201 18.7143 13.2201 20.5828 14.4287 22.2543C16.023 24.5514 18.0887 26.4885 20.4887 27.9285C21.5601 28.6228 22.7687 29.1028 24.0287 29.3257C24.8773 29.5057 25.7601 29.2828 26.4115 28.7085C26.883 28.2885 27.4144 27.9114 27.9115 27.5171C28.5458 27.1057 28.7258 26.2571 28.3144 25.6314C28.263 25.5543 28.203 25.4857 28.143 25.4171C27.4315 24.56 26.7115 23.7114 26.0001 22.8543H25.9915Z" stroke="#898E98" stroke-width="1.5" stroke-linecap="round"/>
</g>
<defs>
<clipPath id="clip0_185_7405">
<rect width="24" height="24" fill="white" transform="translate(8 8)"/>
</clipPath>
</defs>
</svg>
