<svg width="28" height="28" viewBox="0 0 28 28" fill="none" xmlns="http://www.w3.org/2000/svg">
<g clip-path="url(#clip0_185_7110)">
<path d="M13.54 4.29006C13.54 4.29006 13.49 4.29006 13.47 4.29006C7.80997 4.28006 3.21997 8.87006 3.21997 14.5301C3.21997 20.1901 7.80997 24.7801 13.47 24.7801C19.13 24.7801 23.72 20.1901 23.72 14.5301C23.72 14.5101 23.72 14.4801 23.72 14.4601H13.54V4.29006Z" fill="#2AD12E"/>
<path d="M13.47 25.53C7.40997 25.53 2.46997 20.6 2.46997 14.53C2.46997 8.46004 7.40997 3.54004 13.47 3.54004C13.51 3.54004 13.58 3.54004 13.61 3.55004C14.02 3.55004 14.29 3.88004 14.29 4.30004V13.71H23.71C24.12 13.71 24.46 14.05 24.46 14.46C24.46 20.6 19.53 25.53 13.47 25.53ZM12.79 5.05004C7.89997 5.37004 3.96997 9.50004 3.96997 14.53C3.96997 19.56 8.22997 24.03 13.47 24.03C18.71 24.03 22.59 20.13 22.94 15.21H13.54C13.13 15.21 12.79 14.87 12.79 14.46V5.05004Z" fill="#222222"/>
<path d="M16.7999 3.21997V11.2H24.7799C24.7499 6.80997 21.1999 3.24997 16.7999 3.21997Z" fill="#FFB600"/>
<path d="M24.7799 11.95H16.7999C16.3899 11.95 16.0499 11.61 16.0499 11.2V3.21999C16.0499 3.01999 16.1299 2.82999 16.2699 2.68999C16.4099 2.54999 16.5699 2.45999 16.7999 2.46999C21.5799 2.49999 25.4899 6.41999 25.5199 11.19C25.5199 11.39 25.4399 11.58 25.2999 11.72C25.1599 11.86 24.9699 11.94 24.7699 11.94L24.7799 11.95ZM17.5499 10.45H23.9799C23.5999 7.08999 20.9099 4.38999 17.5499 4.01999V10.45Z" fill="#222222"/>
<path opacity="0.1" d="M13.54 14.46L6.20995 21.76C6.20995 21.76 -0.57005 13.57 7.09995 6.51C7.09995 6.51 12.89 3.51999 13.22 4.85L13.55 14.46H13.54Z" fill="#222222"/>
</g>
<defs>
<clipPath id="clip0_185_7110">
<rect width="28" height="28" fill="white"/>
</clipPath>
</defs>
</svg>
