<svg width="16" height="16" viewBox="0 0 16 16" fill="none" xmlns="http://www.w3.org/2000/svg">
<circle cx="8" cy="8" r="8" fill="#DF0029"/>
<path d="M6.83759 11L4.17744 8.08985C4.05589 7.9564 3.99233 7.78013 4.00074 7.59981C4.00916 7.41949 4.08886 7.2499 4.22232 7.12835C4.35577 7.0068 4.53204 6.94323 4.71236 6.95165C4.89268 6.96006 5.06227 7.03977 5.18382 7.17322L6.86324 9.01931L10.5939 5.17331C10.7218 5.05871 10.8884 4.99683 11.0602 5.00012C11.2319 5.00342 11.396 5.07162 11.5195 5.19103C11.643 5.31044 11.7166 5.47219 11.7257 5.64373C11.7347 5.81526 11.6784 5.98386 11.5682 6.11558L6.83759 11Z" fill="white"/>
</svg>
