<svg width="26" height="26" viewBox="0 0 26 26" fill="none" xmlns="http://www.w3.org/2000/svg">
<g clip-path="url(#clip0_370_10265)">
<path d="M22.3731 6.16211H3.61407C2.59455 6.16211 1.76807 6.98859 1.76807 8.00811V21.3331C1.76807 22.3526 2.59455 23.1791 3.61407 23.1791H22.3731C23.3926 23.1791 24.2191 22.3526 24.2191 21.3331V8.00811C24.2191 6.98859 23.3926 6.16211 22.3731 6.16211Z" stroke="#687082" stroke-width="1.5" stroke-linecap="round"/>
<path d="M13.0003 19.396C15.6065 19.396 17.7193 17.2832 17.7193 14.677C17.7193 12.0708 15.6065 9.95801 13.0003 9.95801C10.394 9.95801 8.28125 12.0708 8.28125 14.677C8.28125 17.2832 10.394 19.396 13.0003 19.396Z" stroke="#687082" stroke-width="1.5" stroke-linecap="round"/>
<path d="M4.49805 6.1621V4.10811C4.49805 3.39311 5.08305 2.80811 5.79805 2.80811H9.02205C9.73705 2.80811 10.322 3.39311 10.322 4.10811V6.1621" stroke="#687082" stroke-width="1.5" stroke-linecap="round"/>
</g>
<defs>
<clipPath id="clip0_370_10265">
<rect width="26" height="26" fill="white"/>
</clipPath>
</defs>
</svg>
