<svg width="16" height="16" viewBox="0 0 16 16" fill="none" xmlns="http://www.w3.org/2000/svg">
<circle cx="8" cy="8" r="8" fill="#0063F8"/>
<path d="M6.85585 11.1708L3.83768 7.86899C3.69976 7.71758 3.62765 7.51758 3.63719 7.313C3.64674 7.10841 3.73718 6.916 3.88859 6.77808C4.04001 6.64017 4.24 6.56805 4.44459 6.5776C4.64917 6.58715 4.84159 6.67758 4.9795 6.829L6.88495 8.92355L11.1177 4.55991C11.2629 4.42989 11.4519 4.35969 11.6468 4.36342C11.8416 4.36716 12.0278 4.44453 12.1679 4.58002C12.308 4.71551 12.3916 4.89903 12.4018 5.09365C12.4121 5.28827 12.3482 5.47956 12.2231 5.629L6.85585 11.1708Z" fill="white"/>
</svg>
