<svg width="60" height="60" viewBox="0 0 60 60" fill="none" xmlns="http://www.w3.org/2000/svg">
<g clip-path="url(#clip0_415_3997)">
<path d="M26.03 24.33L36.79 34.11L38.47 32.58C41.13 30.16 45.15 30.15 47.81 32.58L51.26 35.71V16.25C51.26 12.72 48.37 9.83002 44.84 9.83002H15.16C11.63 9.83002 8.73999 12.72 8.73999 16.25V31.55L16.7 24.33C19.36 21.91 23.37 21.92 26.03 24.33Z" fill="#666666"/>
<path d="M45.46 35.16C44.14 33.96 42.14 33.96 40.83 35.16L39.4 36.46L43.41 40.1C44.13 40.75 44.18 41.86 43.53 42.57C43.19 42.95 42.71 43.14 42.23 43.14C41.81 43.14 41.39 42.99 41.05 42.68L23.68 26.9C22.36 25.7 20.37 25.7 19.05 26.9L8.74999 36.24C8.74999 36.24 8.74999 36.24 8.73999 36.24V43.72C8.73999 47.25 11.63 50.14 15.16 50.14H44.84C48.37 50.14 51.26 47.25 51.26 43.72V40.39C51.26 40.39 51.26 40.39 51.25 40.39L45.46 35.14V35.16Z" fill="#666666"/>
</g>
<defs>
<clipPath id="clip0_415_3997">
<rect width="60" height="60" fill="white"/>
</clipPath>
</defs>
</svg>
