<svg width="30" height="30" viewBox="0 0 30 30" fill="none" xmlns="http://www.w3.org/2000/svg">
<path opacity="0.1" d="M15 27C21.6274 27 27 25.6569 27 24C27 22.3431 21.6274 21 15 21C8.37258 21 3 22.3431 3 24C3 25.6569 8.37258 27 15 27Z" fill="#222222"/>
<path d="M7.08008 10.5518H22.9201V22.4078C22.9201 23.0318 22.4081 23.5438 21.7841 23.5438H8.21608C7.59208 23.5438 7.08008 23.0318 7.08008 22.4078V10.5518Z" fill="white" stroke="#222222" stroke-width="1.5" stroke-miterlimit="10"/>
<path d="M17.6641 23.5359H12.2881V18.7599C12.2881 18.4239 12.5601 18.1519 12.8961 18.1519H17.0641C17.4001 18.1519 17.6721 18.4239 17.6721 18.7599V23.5359H17.6641Z" fill="white" stroke="#222222" stroke-width="1.5" stroke-miterlimit="10"/>
<path d="M11.656 3.86377H18.344V9.55177C18.344 11.3758 16.864 12.8558 15.04 12.8558C13.176 12.8558 11.664 11.3438 11.664 9.47977V3.86377H11.656Z" fill="#FF9D00" stroke="#222222" stroke-width="1.5" stroke-linejoin="round"/>
<path d="M8.31202 12.8558C6.46402 12.8558 4.96802 11.5118 4.96802 9.85577L6.24802 3.86377H11.656V9.85577C11.656 11.5118 10.16 12.8558 8.31202 12.8558Z" fill="#DE0029" stroke="#222222" stroke-width="1.5" stroke-linejoin="round"/>
<path d="M21.6881 12.8558C23.5361 12.8558 25.0321 11.5118 25.0321 9.85577L23.7601 3.86377H18.3521V9.85577C18.3521 11.5118 19.8481 12.8558 21.6961 12.8558H21.6881Z" fill="#DE0029" stroke="#222222" stroke-width="1.5" stroke-linejoin="round"/>
<path opacity="0.1" d="M7.60791 15.0717H22.3839V13.1197L18.3439 11.4797L14.9999 13.1197L11.6559 11.4797L7.60791 13.1197V15.0717Z" fill="#222222"/>
<path opacity="0.15" d="M4.97607 9.86377H25.0241V11.1278L22.7601 12.8558L20.1361 12.5118L18.3441 10.9038L15.4321 12.9118H14.5681L11.6561 11.1838L8.60007 12.8558L6.19207 12.1758L4.97607 9.86377Z" fill="#222222"/>
</svg>
