<svg width="20" height="20" viewBox="0 0 20 20" fill="none" xmlns="http://www.w3.org/2000/svg">
<g clip-path="url(#clip0_185_6907)">
<path d="M16.4833 13.9414L16.2916 13.8164C15.0333 12.9748 14.5749 12.4498 14.4999 11.1331L14.3416 7.89977C14.3249 7.61644 14.2833 7.3331 14.2083 7.06644C13.7166 5.14977 11.9833 3.80811 9.99994 3.80811C8.0166 3.80811 6.28327 5.14977 5.7916 7.06644C5.72494 7.34144 5.67494 7.61644 5.65827 7.90811L5.49994 11.1331C5.42494 12.4581 4.9666 12.9831 3.70827 13.8248L3.5166 13.9498V15.9081H16.4833V13.9498V13.9414Z" stroke="#595959" stroke-width="1.5"/>
<path d="M9.99988 3.79989V1.96655" stroke="#595959" stroke-width="1.5"/>
<path d="M12.3249 15.8916C12.3249 17.1749 11.2833 18.2166 9.99993 18.2166C8.71659 18.2166 7.67493 17.1749 7.67493 15.8916" stroke="#595959" stroke-width="1.5"/>
</g>
<defs>
<clipPath id="clip0_185_6907">
<rect width="20" height="20" fill="white"/>
</clipPath>
</defs>
</svg>
