<svg width="40" height="40" viewBox="0 0 40 40" fill="none" xmlns="http://www.w3.org/2000/svg">
<circle cx="20" cy="20" r="20" fill="#F5F5F5"/>
<g clip-path="url(#clip0_185_7400)">
<path d="M27.4314 15.08C26.7114 12.7485 24.8085 10.8457 22.4771 10.1257C20.0085 9.36282 17.3771 9.78282 15.3714 11.2657C13.3828 12.7314 12.1914 15.08 12.1914 17.5571C12.1914 19.2628 12.7314 20.8828 13.7514 22.2371L20 30.2514L26.2486 22.2371C27.7743 20.2057 28.2028 17.5914 27.4228 15.08H27.4314ZM20.0085 21.7571C17.6943 21.7571 15.8 19.8714 15.8 17.5485C15.8 15.2257 17.6857 13.34 20.0085 13.34C22.3314 13.34 24.2171 15.2257 24.2171 17.5485C24.2171 19.8714 22.3314 21.7571 20.0085 21.7571Z" stroke="#898E98" stroke-width="1.5" stroke-linecap="round" stroke-linejoin="round"/>
</g>
<defs>
<clipPath id="clip0_185_7400">
<rect width="24" height="24" fill="white" transform="translate(8 8)"/>
</clipPath>
</defs>
</svg>
