<svg width="74" height="74" viewBox="0 0 74 74" fill="none" xmlns="http://www.w3.org/2000/svg">
<rect width="74" height="74" rx="20" fill="#F5F5F5"/>
<g clip-path="url(#clip0_626_5588)">
<path d="M51.6493 36.2754H38.9485C37.7641 36.2754 36.804 37.2355 36.804 38.4199V49.7011C36.804 50.8855 37.7641 51.8456 38.9485 51.8456H51.6493C52.8337 51.8456 53.7938 50.8855 53.7938 49.7011V38.4199C53.7938 37.2355 52.8337 36.2754 51.6493 36.2754Z" fill="#E8A334"/>
<path d="M51.6493 52.9781H38.9485C37.1363 52.9781 35.6714 51.5132 35.6714 49.7009V38.4197C35.6714 36.6075 37.1363 35.1426 38.9485 35.1426H51.6493C53.4616 35.1426 54.9265 36.6075 54.9265 38.4197V49.7009C54.9265 51.5132 53.4616 52.9781 51.6493 52.9781ZM38.9485 37.4079C38.3898 37.4079 37.9367 37.8609 37.9367 38.4197V49.7009C37.9367 50.2597 38.3898 50.7128 38.9485 50.7128H51.6493C52.2081 50.7128 52.6612 50.2597 52.6612 49.7009V38.4197C52.6612 37.8609 52.2081 37.4079 51.6493 37.4079H38.9485Z" fill="#222222"/>
<path d="M46.2126 20.5098H33.542C32.3576 20.5098 31.3975 21.4699 31.3975 22.6543V34.1318C31.3975 35.3162 32.3576 36.2763 33.542 36.2763H46.2126C47.397 36.2763 48.3571 35.3162 48.3571 34.1318V22.6543C48.3571 21.4699 47.397 20.5098 46.2126 20.5098Z" fill="#EFC17F"/>
<path d="M46.2126 37.4083H33.5269C31.7147 37.4083 30.2498 35.9434 30.2498 34.1311V22.6385C30.2498 20.8262 31.7147 19.3613 33.5269 19.3613H46.2126C48.0249 19.3613 49.4898 20.8262 49.4898 22.6385V34.1311C49.4898 35.9434 48.0249 37.4083 46.2126 37.4083ZM33.5269 21.6417C32.9681 21.6417 32.5151 22.0948 32.5151 22.6536V34.1462C32.5151 34.705 32.9681 35.1581 33.5269 35.1581H46.2126C46.7714 35.1581 47.2244 34.705 47.2244 34.1462V22.6385C47.2244 22.0797 46.7714 21.6266 46.2126 21.6266H33.5269V21.6417Z" fill="#222222"/>
<path d="M40.4738 31.3066H22.3513C21.167 31.3066 20.2068 32.2668 20.2068 33.4511V49.7009C20.2068 50.8853 21.167 51.8454 22.3513 51.8454H40.4738C41.6582 51.8454 42.6183 50.8853 42.6183 49.7009V33.4511C42.6183 32.2668 41.6582 31.3066 40.4738 31.3066Z" fill="#FFC661"/>
<path d="M40.4889 52.9779H22.3514C20.5391 52.9779 19.0742 51.513 19.0742 49.7008V33.451C19.0742 31.6387 20.5391 30.1738 22.3514 30.1738H40.4889C42.3012 30.1738 43.7661 31.6387 43.7661 33.451V49.7008C43.7661 51.513 42.3012 52.9779 40.4889 52.9779ZM22.3514 32.4391C21.7926 32.4391 21.3395 32.8922 21.3395 33.451V49.7008C21.3395 50.2595 21.7926 50.7126 22.3514 50.7126H40.4889C41.0477 50.7126 41.5007 50.2595 41.5007 49.7008V33.451C41.5007 32.8922 41.0477 32.4391 40.4889 32.4391H22.3514Z" fill="#222222"/>
<path d="M25.7644 36.2754H37.1967C37.5138 36.2754 37.7706 36.5321 37.7706 36.8493V38.8578C37.7706 40.1264 36.7436 41.1382 35.4901 41.1382H27.471C26.2024 41.1382 25.1906 40.1113 25.1906 38.8578V36.8493C25.1906 36.5321 25.4473 36.2754 25.7644 36.2754Z" fill="#DBA752"/>
<path d="M35.1428 35.5352H27.8334C26.9159 35.5352 26.1722 36.2789 26.1722 37.1964C26.1722 38.1139 26.9159 38.8576 27.8334 38.8576H35.1428C36.0603 38.8576 36.804 38.1139 36.804 37.1964C36.804 36.2789 36.0603 35.5352 35.1428 35.5352Z" fill="white"/>
<path d="M35.1428 39.9901H27.8334C26.293 39.9901 25.0396 38.7366 25.0396 37.1962C25.0396 35.6558 26.293 34.4023 27.8334 34.4023H35.1277C36.6681 34.4023 37.9216 35.6558 37.9216 37.1962C37.9216 38.7366 36.6681 39.9901 35.1277 39.9901H35.1428ZM27.8485 36.6676C27.5616 36.6676 27.32 36.9093 27.32 37.1962C27.32 37.4832 27.5616 37.7248 27.8485 37.7248H35.1428C35.4298 37.7248 35.6714 37.4832 35.6714 37.1962C35.6714 36.9093 35.4298 36.6676 35.1428 36.6676H27.8334H27.8485Z" fill="#222222"/>
<path d="M55.8024 47.9961H18.2134V53.5083H55.8024V47.9961Z" fill="#7C4131"/>
<path d="M55.7873 54.6252H18.2134C17.5942 54.6252 17.0807 54.1117 17.0807 53.4926V47.9803C17.0807 47.3611 17.5942 46.8477 18.2134 46.8477H55.7873C56.4065 46.8477 56.9199 47.3611 56.9199 47.9803V53.4926C56.9199 54.1117 56.4065 54.6252 55.7873 54.6252ZM19.331 52.3599H54.6546V49.113H19.3461V52.3599H19.331Z" fill="#222222"/>
</g>
<defs>
<clipPath id="clip0_626_5588">
<rect width="42.2857" height="42.2857" fill="white" transform="translate(15.8575 15.8574)"/>
</clipPath>
</defs>
</svg>
