<svg width="26" height="26" viewBox="0 0 26 26" fill="none" xmlns="http://www.w3.org/2000/svg">
<g clip-path="url(#clip0_370_10208)">
<path d="M13.0001 23.0881C18.5716 23.0881 23.0881 18.5716 23.0881 13.0001C23.0881 7.42866 18.5716 2.91211 13.0001 2.91211C7.42866 2.91211 2.91211 7.42866 2.91211 13.0001C2.91211 18.5716 7.42866 23.0881 13.0001 23.0881Z" fill="white" stroke="#595959" stroke-width="2" stroke-miterlimit="10"/>
<path d="M11.0713 17.3337L7.19233 13.1301C7.01509 12.9373 6.9224 12.6827 6.93467 12.4223C6.94694 12.1618 7.06317 11.9169 7.25777 11.7413C7.45236 11.5657 7.7094 11.4739 7.97233 11.486C8.23526 11.4982 8.48255 11.6133 8.65979 11.8061L11.1087 14.4727L16.5485 8.91732C16.7351 8.75179 16.9781 8.66242 17.2285 8.66717C17.4789 8.67193 17.7182 8.77044 17.8983 8.94292C18.0783 9.11541 18.1857 9.34905 18.1989 9.59682C18.2121 9.84459 18.13 10.0881 17.9692 10.2784L11.0713 17.3337Z" fill="#595959"/>
</g>
<defs>
<clipPath id="clip0_370_10208">
<rect width="26" height="26" fill="white"/>
</clipPath>
</defs>
</svg>
