<svg width="24" height="24" viewBox="0 0 24 24" fill="none" xmlns="http://www.w3.org/2000/svg">
<path d="M14.0701 9.11914H3.35009C2.65421 9.11914 2.09009 9.68326 2.09009 10.3791V19.9891C2.09009 20.685 2.65421 21.2491 3.35009 21.2491H14.0701C14.766 21.2491 15.3301 20.685 15.3301 19.9891V10.3791C15.3301 9.68326 14.766 9.11914 14.0701 9.11914Z" stroke="#222222" stroke-width="1.5" stroke-miterlimit="10"/>
<path d="M15.5501 12.0605H20.6501C21.3501 12.0605 21.9101 12.6305 21.9101 13.3205V19.9805C21.9101 20.6805 21.3401 21.2405 20.6501 21.2405H13.1501" stroke="#222222" stroke-width="1.5" stroke-miterlimit="10"/>
<path d="M8.69019 9.12V4.01C8.69019 3.31 9.26019 2.75 9.95019 2.75H17.4402C18.1402 2.75 18.7002 3.32 18.7002 4.01V10.8C18.7002 11.5 18.1302 12.06 17.4402 12.06" stroke="#222222" stroke-width="1.5" stroke-miterlimit="10"/>
<path d="M10.5001 12.0605H7.00011C6.23243 12.0605 5.61011 12.6829 5.61011 13.4505V13.4605C5.61011 14.2282 6.23243 14.8505 7.00011 14.8505H10.5001C11.2678 14.8505 11.8901 14.2282 11.8901 13.4605V13.4505C11.8901 12.6829 11.2678 12.0605 10.5001 12.0605Z" stroke="#222222" stroke-width="1.5" stroke-miterlimit="10"/>
</svg>
