<svg width="20" height="20" viewBox="0 0 20 20" fill="none" xmlns="http://www.w3.org/2000/svg">
<g clip-path="url(#clip0_581_6681)">
<path d="M9.99997 1.80664C5.47664 1.80664 1.80664 5.47331 1.80664 9.99997C1.80664 14.5266 5.47331 18.1933 9.99997 18.1933C14.5266 18.1933 18.1933 14.5266 18.1933 9.99997C18.1933 5.47331 14.5233 1.80664 9.99997 1.80664ZM9.19331 4.97997C9.22331 4.94664 9.26664 4.92997 9.31331 4.92997H10.6866C10.73 4.92997 10.7733 4.94664 10.8066 4.97997C10.8366 5.01331 10.8566 5.05664 10.8533 5.09997L10.6533 11.97C10.6533 12.06 10.5766 12.1333 10.4866 12.1333H9.51331C9.42331 12.1333 9.34997 12.0633 9.34664 11.97L9.14664 5.09997C9.14664 5.05664 9.16331 5.00997 9.19331 4.97997ZM9.99997 15.0666C9.41331 15.0666 8.98997 14.6233 8.98997 14.0133C8.98997 13.4033 9.42331 12.96 9.99997 12.96C10.5766 12.96 11.01 13.3933 11.01 14.0133C11.01 14.6333 10.5833 15.0666 9.99997 15.0666Z" fill="#0063F8"/>
</g>
<defs>
<clipPath id="clip0_581_6681">
<rect width="20" height="20" fill="white"/>
</clipPath>
</defs>
</svg>
