<svg width="20" height="20" viewBox="0 0 20 20" fill="none" xmlns="http://www.w3.org/2000/svg">
<g clip-path="url(#clip0_185_6064)">
<path d="M17.21 4.74023H2.77999C1.99574 4.74023 1.35999 5.37599 1.35999 6.16023V16.4102C1.35999 17.1945 1.99574 17.8302 2.77999 17.8302H17.21C17.9942 17.8302 18.63 17.1945 18.63 16.4102V6.16023C18.63 5.37599 17.9942 4.74023 17.21 4.74023Z" stroke="#222222" stroke-width="1.5" stroke-linecap="round"/>
<path d="M10 14.9202C12.0048 14.9202 13.63 13.295 13.63 11.2902C13.63 9.28536 12.0048 7.66016 10 7.66016C7.9952 7.66016 6.37 9.28536 6.37 11.2902C6.37 13.295 7.9952 14.9202 10 14.9202Z" stroke="#222222" stroke-width="1.5" stroke-linecap="round"/>
<path d="M3.45996 4.74016V3.16016C3.45996 2.61016 3.90996 2.16016 4.45996 2.16016H6.93996C7.48996 2.16016 7.93996 2.61016 7.93996 3.16016V4.74016" stroke="#222222" stroke-width="1.5" stroke-linecap="round"/>
</g>
<defs>
<clipPath id="clip0_185_6064">
<rect width="20" height="20" fill="white"/>
</clipPath>
</defs>
</svg>
