<svg width="18" height="18" viewBox="0 0 18 18" fill="none" xmlns="http://www.w3.org/2000/svg">
<circle cx="9" cy="9" r="8" fill="#DF0029" stroke="white" stroke-width="2"/>
<path d="M7.35129 10.4832L7.70945 10.8769L8.08004 10.4949L12.2616 6.18399C12.3099 6.14482 12.3706 6.12385 12.4331 6.12505C12.5 6.12633 12.5638 6.15287 12.6119 6.19932C12.6599 6.24578 12.6886 6.30871 12.6921 6.37548C12.6954 6.43776 12.6765 6.49903 12.6392 6.54857L7.70282 11.6454L5.06927 8.76439C5.0692 8.76432 5.06913 8.76424 5.06906 8.76416C5.02174 8.71208 4.99701 8.64337 5.00029 8.57309C5.00357 8.50271 5.03469 8.43651 5.08679 8.38904C5.1389 8.34159 5.20771 8.31678 5.2781 8.32006C5.34837 8.32334 5.41449 8.35437 5.46194 8.40634C5.46195 8.40635 5.46196 8.40637 5.46198 8.40638C5.46203 8.40644 5.46209 8.4065 5.46214 8.40657L7.35129 10.4832Z" fill="white" stroke="white"/>
</svg>
