<svg width="28" height="28" viewBox="0 0 28 28" fill="none" xmlns="http://www.w3.org/2000/svg">
<g clip-path="url(#clip0_185_7204)">
<path d="M18.67 4.97998H21.68C22.59 4.97998 23.33 5.63998 23.33 6.44998V23.48C23.33 24.29 22.59 24.95 21.68 24.95H6.32004C5.41004 24.95 4.67004 24.29 4.67004 23.48V6.45998C4.67004 5.64998 5.41004 4.98998 6.32004 4.98998H9.33004" stroke="#8F96A0" stroke-width="1.5" stroke-linecap="round" stroke-linejoin="round"/>
<path d="M17.5801 3.05005H10.4101C9.81361 3.05005 9.33008 3.53358 9.33008 4.13005V5.83005C9.33008 6.42652 9.81361 6.91005 10.4101 6.91005H17.5801C18.1765 6.91005 18.6601 6.42652 18.6601 5.83005V4.13005C18.6601 3.53358 18.1765 3.05005 17.5801 3.05005Z" stroke="#8F96A0" stroke-width="1.5" stroke-linecap="round" stroke-linejoin="round"/>
<path d="M8.72009 17.34L11.9001 13.98L15.9001 13.94L19.2701 10.49" stroke="#8F96A0" stroke-width="1.5" stroke-linecap="round" stroke-linejoin="round"/>
<path d="M16.1301 10.49H19.2801V13.64" stroke="#8F96A0" stroke-width="1.5" stroke-linecap="round" stroke-linejoin="round"/>
<path d="M13.6101 17.6899V20.8399" stroke="#8F96A0" stroke-width="1.5" stroke-linecap="round" stroke-linejoin="round"/>
<path d="M10.2101 19.3501V20.8401" stroke="#8F96A0" stroke-width="1.5" stroke-linecap="round" stroke-linejoin="round"/>
<path d="M17.0201 16.3301V20.8401" stroke="#8F96A0" stroke-width="1.5" stroke-linecap="round" stroke-linejoin="round"/>
</g>
<defs>
<clipPath id="clip0_185_7204">
<rect width="28" height="28" fill="white"/>
</clipPath>
</defs>
</svg>
