<svg width="28" height="28" viewBox="0 0 28 28" fill="none" xmlns="http://www.w3.org/2000/svg">
<g clip-path="url(#clip0_185_7124)">
<path d="M22.9 8.46006V23.0401C22.9 23.9501 22.16 24.6901 21.25 24.6901H6.74998C5.83998 24.6901 5.09998 23.9501 5.09998 23.0401V4.96006C5.09998 4.05006 5.83998 3.31006 6.74998 3.31006H17.75" fill="white"/>
<path d="M22.9 8.46006V23.0401C22.9 23.9501 22.16 24.6901 21.25 24.6901H6.74998C5.83998 24.6901 5.09998 23.9501 5.09998 23.0401V4.96006C5.09998 4.05006 5.83998 3.31006 6.74998 3.31006H17.75" stroke="#222222" stroke-width="1.5" stroke-linecap="round" stroke-linejoin="round"/>
<path d="M8.98999 12.6901L10.27 14.1701L12.65 11.6001" stroke="#FF4D4D" stroke-width="1.5" stroke-linecap="round" stroke-linejoin="round"/>
<path d="M13.92 13.75H19.01" stroke="#FF4D4D" stroke-width="1.5" stroke-linecap="round" stroke-linejoin="round"/>
<path d="M8.98999 18.08L10.27 19.56L12.65 16.99" stroke="#FF4D4D" stroke-width="1.5" stroke-linecap="round" stroke-linejoin="round"/>
<path d="M13.92 19.1401H19.01" stroke="#FF4D4D" stroke-width="1.5" stroke-linecap="round" stroke-linejoin="round"/>
<path opacity="0.1" d="M21.81 10.57H17.2C16.39 10.57 15.73 9.91002 15.73 9.10002V4.49002C15.73 3.68002 16.39 3.02002 17.2 3.02002L23.28 9.10002C23.28 9.91002 22.62 10.57 21.81 10.57Z" fill="#222222"/>
<path d="M22.9 8.46006H17.75V3.31006L22.9 8.46006Z" fill="white" stroke="#222222" stroke-width="1.5" stroke-linecap="round" stroke-linejoin="round"/>
</g>
<defs>
<clipPath id="clip0_185_7124">
<rect width="28" height="28" fill="white"/>
</clipPath>
</defs>
</svg>
