<svg width="60" height="60" viewBox="0 0 60 60" fill="none" xmlns="http://www.w3.org/2000/svg">
<g clip-path="url(#clip0_370_5860)">
<path d="M51.26 10.0498C51.26 8.3998 49.91 7.0498 48.26 7.0498H11.74C10.09 7.0498 8.73999 8.3998 8.73999 10.0498V17.7498H51.26V10.0498Z" fill="black" fill-opacity="0.1"/>
<path d="M8.73999 21.0298V49.7798C8.73999 51.4298 10.09 52.7798 11.74 52.7798H48.26C49.91 52.7798 51.26 51.4298 51.26 49.7798V21.0298H8.73999ZM22.08 45.1498C22.08 45.9298 21.44 46.5698 20.66 46.5698H15.47C14.69 46.5698 14.05 45.9298 14.05 45.1498V39.9598C14.05 39.1798 14.69 38.5398 15.47 38.5398H20.66C21.44 38.5398 22.08 39.1798 22.08 39.9598V45.1498ZM22.08 33.8398C22.08 34.6198 21.44 35.2598 20.66 35.2598H15.47C14.69 35.2598 14.05 34.6198 14.05 33.8398V28.6498C14.05 27.8698 14.69 27.2298 15.47 27.2298H20.66C21.44 27.2298 22.08 27.8698 22.08 28.6498V33.8398ZM34.01 45.1498C34.01 45.9298 33.37 46.5698 32.59 46.5698H27.4C26.62 46.5698 25.98 45.9298 25.98 45.1498V39.9598C25.98 39.1798 26.62 38.5398 27.4 38.5398H32.59C33.37 38.5398 34.01 39.1798 34.01 39.9598V45.1498ZM34.01 33.8398C34.01 34.6198 33.37 35.2598 32.59 35.2598H27.4C26.62 35.2598 25.98 34.6198 25.98 33.8398V28.6498C25.98 27.8698 26.62 27.2298 27.4 27.2298H32.59C33.37 27.2298 34.01 27.8698 34.01 28.6498V33.8398ZM45.94 33.8398C45.94 34.6198 45.3 35.2598 44.52 35.2598H39.33C38.55 35.2598 37.91 34.6198 37.91 33.8398V28.6498C37.91 27.8698 38.55 27.2298 39.33 27.2298H44.52C45.3 27.2298 45.94 27.8698 45.94 28.6498V33.8398Z" fill="black" fill-opacity="0.1"/>
</g>
<defs>
<clipPath id="clip0_370_5860">
<rect width="60" height="60" fill="white"/>
</clipPath>
</defs>
</svg>
