<svg width="25" height="24" viewBox="0 0 25 24" fill="none" xmlns="http://www.w3.org/2000/svg">
<g clip-path="url(#clip0_581_5332)">
<path d="M12.0202 21.9899C6.76023 21.9899 2.49023 17.7099 2.49023 12.4599C2.49023 7.20992 6.76023 2.91992 12.0202 2.91992C12.0602 2.91992 12.1402 2.91992 12.1802 2.92992C12.5902 2.92992 12.8302 3.25992 12.8302 3.66992V11.6399H20.8002C21.2102 11.6399 21.5502 11.9799 21.5502 12.3899C21.5502 17.7099 17.2802 21.9799 12.0202 21.9799V21.9899ZM11.3302 4.43992C7.27023 4.75992 3.99023 8.22992 3.99023 12.4599C3.99023 16.6899 7.59024 20.4899 12.0202 20.4899C16.2202 20.4899 19.6702 17.2499 20.0202 13.1499H12.0802C11.6702 13.1499 11.3302 12.8099 11.3302 12.3999V4.43992Z" fill="#222222"/>
<path d="M21.7101 10.3498H14.8701C14.4601 10.3498 14.1201 10.0098 14.1201 9.59977V2.75977C14.1201 2.55977 14.2001 2.36977 14.3401 2.22977C14.4801 2.08977 14.6401 2.02977 14.8701 2.00977C19.0201 2.03977 22.4201 5.43977 22.4501 9.58977C22.4501 9.78977 22.3701 9.97977 22.2301 10.1198C22.0901 10.2598 21.9001 10.3398 21.7001 10.3398L21.7101 10.3498ZM15.6201 8.84977H20.9001C20.5401 6.10977 18.3501 3.92977 15.6201 3.55977V8.84977Z" fill="#222222"/>
</g>
<defs>
<clipPath id="clip0_581_5332">
<rect width="24" height="24" fill="white" transform="translate(0.470215)"/>
</clipPath>
</defs>
</svg>
