<svg width="60" height="60" viewBox="0 0 60 60" fill="none" xmlns="http://www.w3.org/2000/svg">
<g clip-path="url(#clip0_9_2210)">
<path d="M55.01 50.8299L45.34 41.1599C52.33 32.1299 51.7 19.0799 43.42 10.7999C34.45 1.8099 19.83 1.8099 10.85 10.7899C1.86999 19.7699 1.86999 34.3799 10.85 43.3599C15.34 47.8499 21.24 50.0999 27.14 50.0999C32.06 50.0999 36.98 48.5099 41.08 45.3799L50.77 55.0699C51.36 55.6599 52.12 55.9499 52.89 55.9499C53.66 55.9499 54.43 55.6599 55.01 55.0699C56.18 53.8999 56.18 51.9999 55.01 50.8299ZM15.1 39.1199C11.88 35.8999 10.11 31.6299 10.11 27.0799C10.11 22.5299 11.88 18.2499 15.1 15.0399C18.32 11.8299 22.59 10.0499 27.14 10.0499C31.69 10.0499 35.97 11.8199 39.18 15.0399C42.39 18.2599 44.17 22.5299 44.17 27.0799C44.17 31.6299 42.4 35.9099 39.18 39.1199C35.96 42.3299 31.69 44.1099 27.14 44.1099C22.59 44.1099 18.31 42.3399 15.1 39.1199Z" fill="black" fill-opacity="0.1"/>
</g>
<defs>
<clipPath id="clip0_9_2210">
<rect width="60" height="60" fill="white"/>
</clipPath>
</defs>
</svg>
