<svg width="16" height="16" viewBox="0 0 16 16" fill="none" xmlns="http://www.w3.org/2000/svg">
<g clip-path="url(#clip0_450_5074)">
<path d="M7.99998 1.44531C4.38131 1.44531 1.44531 4.37865 1.44531 7.99998C1.44531 11.6213 4.37865 14.5546 7.99998 14.5546C11.6213 14.5546 14.5546 11.6213 14.5546 7.99998C14.5546 4.37865 11.6186 1.44531 7.99998 1.44531ZM7.35465 3.98398C7.37865 3.95731 7.41331 3.94398 7.45065 3.94398H8.54931C8.58398 3.94398 8.61864 3.95731 8.64531 3.98398C8.66931 4.01065 8.68531 4.04531 8.68265 4.07998L8.52264 9.57598C8.52264 9.64798 8.46131 9.70665 8.38931 9.70665H7.61065C7.53865 9.70665 7.47998 9.65065 7.47731 9.57598L7.31731 4.07998C7.31731 4.04531 7.33065 4.00798 7.35465 3.98398ZM7.99998 12.0533C7.53065 12.0533 7.19198 11.6986 7.19198 11.2106C7.19198 10.7226 7.53865 10.368 7.99998 10.368C8.46131 10.368 8.80798 10.7146 8.80798 11.2106C8.80798 11.7066 8.46665 12.0533 7.99998 12.0533Z" fill="#DF0029"/>
</g>
<defs>
<clipPath id="clip0_450_5074">
<rect width="16" height="16" fill="white"/>
</clipPath>
</defs>
</svg>
