<svg width="20" height="20" viewBox="0 0 20 20" fill="none" xmlns="http://www.w3.org/2000/svg">
<path d="M14.3699 17.9198C14.1799 17.9198 13.9899 17.8698 13.8099 17.7798L9.98994 15.7698L6.16994 17.7798C5.76994 17.9898 5.27994 17.9498 4.91994 17.6898C4.55994 17.4298 4.36994 16.9698 4.44994 16.5298L5.17994 12.2798L2.08994 9.26984C1.75994 8.94984 1.64994 8.47984 1.78994 8.04984C1.92994 7.61984 2.29994 7.30984 2.74994 7.23984L7.01994 6.61984L8.92994 2.74984C9.12994 2.33984 9.53994 2.08984 9.99994 2.08984C10.4599 2.08984 10.8699 2.33984 11.0699 2.74984L12.9799 6.61984L17.2499 7.23984C17.6999 7.29984 18.0699 7.61984 18.2099 8.04984C18.3499 8.48984 18.2399 8.94984 17.9099 9.26984L14.8199 12.2798L15.5499 16.5298C15.6299 16.9698 15.4399 17.4298 15.0799 17.6898C14.8699 17.8398 14.6299 17.9198 14.3799 17.9198H14.3699ZM3.58994 8.62984L6.78994 11.7498L6.02994 16.1598L9.98994 14.0798L13.9499 16.1598L13.1899 11.7498L16.3899 8.62984L11.9599 7.98984L9.97994 3.97984L7.99994 7.98984L3.56994 8.62984H3.58994Z" fill="#222222"/>
</svg>
