<svg width="25" height="25" viewBox="0 0 25 25" fill="none" xmlns="http://www.w3.org/2000/svg">
<path d="M16.2602 5.64062H18.6502C19.3202 5.64062 19.8602 6.19063 19.8602 6.85063V20.9206C19.8602 21.5906 19.3102 22.1306 18.6502 22.1306H5.62016C4.95016 22.1306 4.41016 21.5806 4.41016 20.9206V6.85063C4.41016 6.18063 4.96016 5.64062 5.62016 5.64062H8.00016" stroke="#222222" stroke-width="1.5" stroke-miterlimit="10"/>
<path d="M14.0503 4.31992C14.0503 4.24992 14.0503 4.18992 14.0503 4.11992C14.0503 3.18992 13.1903 2.41992 12.1403 2.41992C11.0903 2.41992 10.2303 3.17992 10.2303 4.11992C10.2303 4.18992 10.2303 4.24992 10.2303 4.31992H8.01025V6.36992C8.01025 7.04992 8.63025 7.58992 9.39025 7.58992H14.8803C15.6403 7.58992 16.2603 7.03992 16.2603 6.36992V4.31992H14.0403H14.0503Z" stroke="#222222" stroke-width="1.5" stroke-linejoin="round"/>
<path d="M8.50024 11.1797H15.7902" stroke="#222222" stroke-width="1.5" stroke-linecap="round" stroke-linejoin="round"/>
<path d="M8.50024 14.9004H15.7902" stroke="#222222" stroke-width="1.5" stroke-linecap="round" stroke-linejoin="round"/>
<path d="M8.50024 18.6191H15.7902" stroke="#222222" stroke-width="1.5" stroke-linecap="round" stroke-linejoin="round"/>
</svg>
