<svg width="28" height="28" viewBox="0 0 28 28" fill="none" xmlns="http://www.w3.org/2000/svg">
<g clip-path="url(#clip0_185_7138)">
<path d="M19.1899 19.7102L23.5199 24.6202" stroke="#222222" stroke-width="1.5" stroke-linecap="round" stroke-linejoin="round"/>
<path d="M12.8899 22.0001C18.2471 22.0001 22.5899 17.6573 22.5899 12.3001C22.5899 6.94294 18.2471 2.6001 12.8899 2.6001C7.53278 2.6001 3.18994 6.94294 3.18994 12.3001C3.18994 17.6573 7.53278 22.0001 12.8899 22.0001Z" fill="white" stroke="#222222" stroke-width="1.5" stroke-linecap="round" stroke-linejoin="round"/>
<path d="M12.46 9.05005H17.67" stroke="#8952E2" stroke-width="1.5" stroke-linecap="round" stroke-linejoin="round"/>
<path d="M8.09998 9.05005H9.72997" stroke="#8952E2" stroke-width="1.5" stroke-linecap="round" stroke-linejoin="round"/>
<path d="M12.46 12.3H17.67" stroke="#8952E2" stroke-width="1.5" stroke-linecap="round" stroke-linejoin="round"/>
<path d="M8.09998 12.3H9.72997" stroke="#8952E2" stroke-width="1.5" stroke-linecap="round" stroke-linejoin="round"/>
<path d="M12.46 15.5601H17.67" stroke="#8952E2" stroke-width="1.5" stroke-linecap="round" stroke-linejoin="round"/>
<path d="M8.09998 15.5601H9.72997" stroke="#8952E2" stroke-width="1.5" stroke-linecap="round" stroke-linejoin="round"/>
<path opacity="0.1" d="M20.4999 7C20.7099 7.86 20.8399 8.75 20.8399 9.67C20.8399 15.8 15.8699 20.77 9.73993 20.77C9.50993 20.77 9.27993 20.75 9.04993 20.74C10.2199 21.27 11.5199 21.58 12.8899 21.58C18.0099 21.58 22.1699 17.43 22.1699 12.3C22.1699 10.33 21.5499 8.5 20.4999 7Z" fill="#222222"/>
</g>
<defs>
<clipPath id="clip0_185_7138">
<rect width="28" height="28" fill="white"/>
</clipPath>
</defs>
</svg>
