<svg width="74" height="74" viewBox="0 0 74 74" fill="none" xmlns="http://www.w3.org/2000/svg">
<rect width="74" height="74" rx="20" fill="#F5F5F5"/>
<g clip-path="url(#clip0_626_5799)">
<path d="M48.4776 25.2969H25.5225C24.3382 25.2969 23.3781 26.257 23.3781 27.4414V52.2238C23.3781 53.4082 24.3382 54.3683 25.5225 54.3683H48.4776C49.662 54.3683 50.6221 53.4082 50.6221 52.2238V27.4414C50.6221 26.257 49.662 25.2969 48.4776 25.2969Z" fill="#E6F4FC"/>
<path d="M48.4776 55.4857H25.5225C23.7103 55.4857 22.2454 54.0208 22.2454 52.2085V27.4412C22.2454 25.629 23.7103 24.1641 25.5225 24.1641H48.4927C50.305 24.1641 51.7699 25.629 51.7699 27.4412V52.2237C51.7699 54.0359 50.305 55.5008 48.4927 55.5008L48.4776 55.4857ZM25.5225 26.4294C24.9637 26.4294 24.5107 26.8824 24.5107 27.4412V52.2237C24.5107 52.7824 24.9637 53.2355 25.5225 53.2355H48.4927C49.0515 53.2355 49.5045 52.7824 49.5045 52.2237V27.4412C49.5045 26.8824 49.0515 26.4294 48.4927 26.4294H25.5225Z" fill="#222222"/>
<path d="M44.7323 35.5801H29.2527V37.0903H44.7323V35.5801Z" fill="#D1E3E8"/>
<path d="M44.7323 41.5605H29.2527V43.0708H44.7323V41.5605Z" fill="#D1E3E8"/>
<path d="M44.7323 47.541H29.2527V49.0512H44.7323V47.541Z" fill="#D1E3E8"/>
<path d="M44.7323 33.7383H29.2527V36.0036H44.7323V33.7383Z" fill="#2ABC2A"/>
<path d="M44.7323 39.7344H29.2527V41.9997H44.7323V39.7344Z" fill="#2ABC2A"/>
<path d="M44.7323 45.7148H29.2527V47.9801H44.7323V45.7148Z" fill="#2ABC2A"/>
<path d="M40.3678 22.9704C40.3678 22.8495 40.3678 22.7438 40.3678 22.623C40.3678 20.9769 38.8576 19.6328 37 19.6328C35.1425 19.6328 33.6323 20.9769 33.6323 22.623C33.6323 22.7438 33.6323 22.8495 33.6323 22.9704H29.736V26.5949C29.736 27.7879 30.8233 28.7544 32.1674 28.7544H41.8478C43.1919 28.7544 44.2792 27.7879 44.2792 26.5949V22.9704H40.3829H40.3678Z" fill="#90A4AE"/>
<path d="M41.8327 29.8869H32.1674C30.2041 29.8869 28.6033 28.4069 28.6033 26.5947V22.9702C28.6033 22.351 29.1167 21.8376 29.7359 21.8376H32.5902C32.998 19.9347 34.8253 18.5 37 18.5C39.1747 18.5 41.0171 19.9347 41.4098 21.8376H44.2641C44.8833 21.8376 45.3967 22.351 45.3967 22.9702V26.5947C45.3967 28.4069 43.7959 29.8869 41.8327 29.8869ZM30.8686 24.1029V26.5947C30.8686 27.1535 31.4576 27.6216 32.1674 27.6216H41.8327C42.5425 27.6216 43.1314 27.1535 43.1314 26.5947V24.1029H40.3678C39.7486 24.1029 39.2351 23.5894 39.2351 22.9702V22.6229C39.2351 21.5959 38.2384 20.7653 37 20.7653C35.7616 20.7653 34.7649 21.5959 34.7649 22.6229V22.9702C34.7649 23.5894 34.2665 24.1029 33.6323 24.1029H30.8686Z" fill="#222222"/>
</g>
<defs>
<clipPath id="clip0_626_5799">
<rect width="42.2857" height="42.2857" fill="white" transform="translate(15.8572 15.8574)"/>
</clipPath>
</defs>
</svg>
