<svg width="18" height="18" viewBox="0 0 18 18" fill="none" xmlns="http://www.w3.org/2000/svg">
<path d="M14.9936 5.19882C14.411 3.31604 12.8793 1.78395 10.9966 1.20127C9.00383 0.583987 6.88363 0.92706 5.2653 2.1195C3.65888 3.3037 2.69995 5.2007 2.69995 7.19382C2.69995 8.5688 3.13492 9.8751 3.95754 10.9713L9.0006 17.4382L14.0437 10.9708C15.2748 9.32936 15.6212 7.22554 14.9936 5.19882ZM9.0006 10.5864C7.13009 10.5864 5.60795 9.0643 5.60795 7.19379C5.60795 5.32328 7.13009 3.80114 9.0006 3.80114C10.8711 3.80114 12.3932 5.32328 12.3932 7.19379C12.3932 9.0643 10.8711 10.5864 9.0006 10.5864Z" fill="#595959"/>
<path d="M9.00095 4.77686C7.6648 4.77686 6.57764 5.85756 6.57764 7.19371C6.57764 8.52986 7.6648 9.61703 9.00095 9.61703C10.3371 9.61703 11.4243 8.52986 11.4243 7.19371C11.4243 5.85756 10.3371 4.77686 9.00095 4.77686Z" fill="#595959"/>
</svg>
