<svg width="60" height="60" viewBox="0 0 60 60" fill="none" xmlns="http://www.w3.org/2000/svg">
<g clip-path="url(#clip0_9_2156)">
<path d="M38.31 43.23C38.78 46.35 37.92 52.87 35.46 55.35C40.14 52.86 48.08 44.97 51.26 40.72C48.53 42.63 42.66 44.24 38.31 43.23Z" fill="black" fill-opacity="0.1"/>
<path d="M48.25 4.48999H11.75C10.09 4.48999 8.73999 5.84999 8.73999 7.49999V52.5C8.73999 54.16 10.1 55.51 11.75 55.51H26.61C36.94 55.51 33.7 38.5 33.7 38.5C40.1 40.08 51.25 39.39 51.25 32.12V7.49999C51.25 5.83999 49.89 4.48999 48.24 4.48999H48.25ZM20.33 27.2C18.71 27.2 17.39 25.88 17.39 24.26C17.39 22.64 18.71 21.32 20.33 21.32C21.95 21.32 23.27 22.64 23.27 24.26C23.27 25.88 21.95 27.2 20.33 27.2ZM30 27.2C28.38 27.2 27.06 25.88 27.06 24.26C27.06 22.64 28.38 21.32 30 21.32C31.62 21.32 32.94 22.64 32.94 24.26C32.94 25.88 31.62 27.2 30 27.2ZM39.67 27.2C38.05 27.2 36.73 25.88 36.73 24.26C36.73 22.64 38.05 21.32 39.67 21.32C41.29 21.32 42.61 22.64 42.61 24.26C42.61 25.88 41.29 27.2 39.67 27.2Z" fill="black" fill-opacity="0.1"/>
</g>
<defs>
<clipPath id="clip0_9_2156">
<rect width="60" height="60" fill="white"/>
</clipPath>
</defs>
</svg>
