<svg width="60" height="60" viewBox="0 0 60 60" fill="none" xmlns="http://www.w3.org/2000/svg">
<g clip-path="url(#clip0_576_5886)">
<path d="M52.02 24.75C51.64 23.58 50.65 22.75 49.44 22.58L37.98 20.92L32.86 10.54C32.32 9.44001 31.22 8.76001 30 8.76001C28.78 8.76001 27.68 9.44001 27.13 10.54L22.01 20.92L10.55 22.58C9.34001 22.75 8.35001 23.59 7.97001 24.75C7.59001 25.92 7.90001 27.17 8.78001 28.03L17.07 36.11L15.11 47.52C14.91 48.71 15.41 49.94 16.38 50.64C17.34 51.34 18.67 51.44 19.74 50.88L29.99 45.49L40.24 50.88C40.71 51.13 41.22 51.25 41.73 51.25C42.39 51.25 43.04 51.04 43.6 50.64C44.58 49.93 45.08 48.71 44.87 47.52L42.91 36.11L51.2 28.03C52.08 27.18 52.39 25.92 52.01 24.75H52.02Z" fill="#E6E6E6"/>
</g>
<defs>
<clipPath id="clip0_576_5886">
<rect width="60" height="60" fill="white"/>
</clipPath>
</defs>
</svg>
