<svg width="28" height="28" viewBox="0 0 28 28" fill="none" xmlns="http://www.w3.org/2000/svg">
<g clip-path="url(#clip0_185_7079)">
<path d="M2.13 10.8599H25.87V21.9299C25.87 23.0899 24.92 24.0399 23.76 24.0399H4.24C3.08 24.0399 2.13 23.0899 2.13 21.9299V10.8599Z" fill="#A7694A" stroke="#222222" stroke-width="1.5" stroke-miterlimit="10"/>
<path d="M3.49004 9.91992H24.51C24.89 9.91992 25.2 10.2299 25.2 10.6099V16.0599C25.2 17.5399 24 18.7499 22.51 18.7499H5.48004C4.00004 18.7499 2.79004 17.5499 2.79004 16.0599V10.6099C2.79004 10.2299 3.10004 9.91992 3.48004 9.91992H3.49004Z" fill="#91573D"/>
<path d="M10.42 7.65996V6.05996C10.42 4.89996 11.61 3.95996 13.05 3.95996H14.95C16.4 3.95996 17.58 4.90996 17.58 6.05996V7.65996" stroke="#222222" stroke-width="1.5" stroke-miterlimit="10"/>
<path d="M4.24001 7.65991H23.76C24.92 7.65991 25.87 8.60991 25.87 9.76991V11.7999C25.87 14.3899 23.77 16.4899 21.18 16.4899H6.83001C4.24001 16.4899 2.14001 14.3899 2.14001 11.7999V9.76991C2.14001 8.60991 3.09001 7.65991 4.25001 7.65991H4.24001Z" fill="#A7694A" stroke="#222222" stroke-width="1.5" stroke-miterlimit="10"/>
<path d="M9.98 16.03C9.98 15.2071 9.3129 14.54 8.49 14.54C7.6671 14.54 7 15.2071 7 16.03V17.26C7 18.0829 7.6671 18.75 8.49 18.75C9.3129 18.75 9.98 18.0829 9.98 17.26V16.03Z" fill="#FF9D00" stroke="#222222" stroke-width="1.5" stroke-miterlimit="10"/>
<path d="M21 16.03C21 15.2071 20.3329 14.54 19.51 14.54C18.6871 14.54 18.02 15.2071 18.02 16.03V17.26C18.02 18.0829 18.6871 18.75 19.51 18.75C20.3329 18.75 21 18.0829 21 17.26V16.03Z" fill="#FF9D00" stroke="#222222" stroke-width="1.5" stroke-miterlimit="10"/>
</g>
<defs>
<clipPath id="clip0_185_7079">
<rect width="28" height="28" fill="white"/>
</clipPath>
</defs>
</svg>
