<svg width="28" height="28" viewBox="0 0 28 28" fill="none" xmlns="http://www.w3.org/2000/svg">
<g clip-path="url(#clip0_185_7101)">
<path d="M14 4.34985L10.86 10.6999L3.84998 11.7199L8.92998 16.6699L7.72998 23.6499L14 20.3499L20.27 23.6499L19.07 16.6699L24.15 11.7199L17.14 10.6999L14 4.34985Z" fill="#FFDA00"/>
<path d="M7.87997 24.78C7.58997 24.78 7.30997 24.69 7.07997 24.52C6.65997 24.21 6.44997 23.7 6.53997 23.18L7.58997 17.07L3.13997 12.76C2.75997 12.39 2.62997 11.86 2.78997 11.36C2.94997 10.86 3.36997 10.51 3.88997 10.43L10.02 9.53997L12.76 3.97997C12.99 3.50997 13.46 3.21997 13.99 3.21997C14.52 3.21997 14.98 3.50997 15.22 3.97997L17.96 9.53997L24.09 10.43C24.61 10.51 25.03 10.86 25.19 11.36C25.35 11.86 25.22 12.39 24.84 12.76L20.4 17.08L21.45 23.19C21.54 23.7 21.32 24.22 20.91 24.53C20.49 24.83 19.93 24.87 19.47 24.63L13.99 21.75L8.50997 24.63C8.30997 24.73 8.08997 24.79 7.86997 24.79L7.87997 24.78ZM14 20.05L19.94 23.17L18.81 16.55L23.62 11.86L16.98 10.89L14.01 4.86997L11.04 10.89L4.39997 11.86L9.20997 16.55L8.07997 23.17L14.02 20.05H14Z" fill="#1D1D1B"/>
<path opacity="0.1" d="M14 4.34985V13.9999L3.60999 11.8799L10.43 10.2499L14 4.34985Z" fill="#222222"/>
</g>
<defs>
<clipPath id="clip0_185_7101">
<rect width="28" height="28" fill="white"/>
</clipPath>
</defs>
</svg>
