<svg width="28" height="28" viewBox="0 0 28 28" fill="none" xmlns="http://www.w3.org/2000/svg">
<g clip-path="url(#clip0_1201_4350)">
<path d="M13.9996 3.8501C8.39961 3.8501 3.84961 8.3901 3.84961 14.0001C3.84961 19.6101 8.38961 24.1501 13.9996 24.1501C19.6096 24.1501 24.1496 19.6101 24.1496 14.0001C24.1496 8.3901 19.5996 3.8501 13.9996 3.8501ZM13.9996 19.4101C11.7796 19.4101 9.97961 17.6101 9.97961 15.3901C9.97961 13.1701 13.6296 8.8601 13.7896 8.6801C13.8896 8.5601 14.0996 8.5601 14.2096 8.6801C14.3696 8.8701 18.0196 13.2501 18.0196 15.3901C18.0196 17.5301 16.2196 19.4101 13.9996 19.4101Z" fill="white"/>
</g>
<defs>
<clipPath id="clip0_1201_4350">
<rect width="28" height="28" fill="white"/>
</clipPath>
</defs>
</svg>
