<svg width="28" height="28" viewBox="0 0 28 28" fill="none" xmlns="http://www.w3.org/2000/svg">
<g clip-path="url(#clip0_1201_4356)">
<path d="M23.3799 12.3802L21.6599 7.46022C21.1899 6.12022 19.9199 5.22021 18.4999 5.22021H9.50988C8.08988 5.22021 6.81988 6.12022 6.34988 7.46022L4.62988 12.3802C3.70988 12.9902 3.12988 14.0302 3.12988 15.1802V21.1202C3.12988 22.0502 3.87988 22.7902 4.79988 22.7902C5.71988 22.7902 6.46988 22.0402 6.46988 21.1202V20.0602C6.46988 20.0602 10.8899 20.2802 13.9999 20.2802C17.1099 20.2802 21.5299 20.0602 21.5299 20.0602V21.1202C21.5299 22.0502 22.2799 22.7902 23.1999 22.7902C24.1199 22.7902 24.8699 22.0402 24.8699 21.1202V15.1802C24.8699 14.0302 24.2899 12.9802 23.3699 12.3802H23.3799ZM6.95988 10.7502L7.91988 8.01022C8.15988 7.34022 8.78988 6.89021 9.49988 6.89021H18.4899C19.1999 6.89021 19.8399 7.34022 20.0699 8.01022L21.0299 10.7502C21.1799 11.1802 20.8199 11.6202 20.3699 11.5402C18.7299 11.2702 16.6199 11.0702 13.9899 11.0702C11.3599 11.0702 9.24988 11.2702 7.60988 11.5402C7.15988 11.6102 6.79988 11.1802 6.94988 10.7502H6.95988ZM6.87988 16.9302C6.18988 16.9302 5.61988 16.3702 5.61988 15.6702C5.61988 14.9702 6.17988 14.4102 6.87988 14.4102C7.57988 14.4102 8.13988 14.9702 8.13988 15.6702C8.13988 16.3702 7.57988 16.9302 6.87988 16.9302ZM16.5099 16.0902H11.4899C11.0299 16.0902 10.6499 15.7102 10.6499 15.2502C10.6499 14.7902 11.0299 14.4102 11.4899 14.4102H16.5099C16.9699 14.4102 17.3499 14.7902 17.3499 15.2502C17.3499 15.7102 16.9699 16.0902 16.5099 16.0902ZM21.1199 16.9302C20.4299 16.9302 19.8599 16.3702 19.8599 15.6702C19.8599 14.9702 20.4199 14.4102 21.1199 14.4102C21.8199 14.4102 22.3799 14.9702 22.3799 15.6702C22.3799 16.3702 21.8199 16.9302 21.1199 16.9302Z" fill="white"/>
</g>
<defs>
<clipPath id="clip0_1201_4356">
<rect width="28" height="28" fill="white"/>
</clipPath>
</defs>
</svg>
