<svg width="28" height="28" viewBox="0 0 28 28" fill="none" xmlns="http://www.w3.org/2000/svg">
<g clip-path="url(#clip0_1201_4353)">
<path d="M13.9996 3.8501C8.39961 3.8501 3.84961 8.3901 3.84961 14.0001C3.84961 19.6101 8.38961 24.1501 13.9996 24.1501C19.6096 24.1501 24.1496 19.6101 24.1496 14.0001C24.1496 8.3901 19.5996 3.8501 13.9996 3.8501ZM19.8796 15.4101H18.1896L17.2496 17.7001C17.1096 18.0401 16.7796 18.2601 16.4096 18.2601C16.0396 18.2601 15.7096 18.0401 15.5696 17.7001L14.0596 14.0501L12.5496 17.7001C12.4096 18.0401 12.0796 18.2601 11.7096 18.2601C11.3396 18.2601 11.0096 18.0401 10.8696 17.7001L9.92961 15.4101H8.12961C7.62961 15.4101 7.21961 15.0001 7.21961 14.5001C7.21961 14.0001 7.62961 13.5901 8.12961 13.5901H9.17961L8.52961 12.0001C8.33961 11.5301 8.55961 11.0001 9.02961 10.8101C9.49961 10.6201 10.0296 10.8401 10.2196 11.3101L11.7296 14.9601L13.2396 11.3101C13.2896 11.2001 13.3496 11.1001 13.4396 11.0201C13.6096 10.8501 13.8496 10.7501 14.0896 10.7501C14.1396 10.7501 14.1796 10.7701 14.2296 10.7801C14.2996 10.7901 14.3696 10.7901 14.4296 10.8201C14.5396 10.8701 14.6396 10.9301 14.7296 11.0201C14.8096 11.1101 14.8796 11.2001 14.9296 11.3101L16.4396 14.9601L17.9496 11.3101C18.1396 10.8401 18.6796 10.6201 19.1396 10.8101C19.6096 11.0001 19.8296 11.5401 19.6396 12.0001L18.9896 13.5901H19.9296C20.4296 13.5901 20.8396 14.0001 20.8396 14.5001C20.8396 15.0001 20.4296 15.4101 19.9296 15.4101H19.8796Z" fill="white"/>
</g>
<defs>
<clipPath id="clip0_1201_4353">
<rect width="28" height="28" fill="white"/>
</clipPath>
</defs>
</svg>
