<svg width="80" height="26" viewBox="0 0 80 26" fill="none" xmlns="http://www.w3.org/2000/svg">
<g clip-path="url(#clip0_441_4357)">
<path d="M75.6273 11.7888C75.6367 12.9836 76.597 13.9532 77.7918 13.9532C78.9866 13.9532 79.9594 12.9836 79.9594 11.7888V5.80527C79.9594 4.60732 78.9897 3.6377 77.7918 3.6377C76.5938 3.6377 75.6273 4.60732 75.6273 5.80527L75.6367 9.33657C75.6367 9.33657 75.3646 10.5126 74.0759 10.5627C72.7873 10.6127 69.2935 8.80171 68.0174 5.45808C67.5607 4.34145 66.9226 3.8973 65.9374 3.8973C64.9521 3.8973 64.1326 4.51974 63.8636 5.43306C62.6532 9.42102 59.8038 10.6534 58.9123 10.7159C58.218 10.7847 57.7488 11.2383 57.7488 11.8513C57.7488 12.4644 58.2179 12.8679 58.9373 12.8679C60.4981 12.8679 63.6197 11.9014 65.9749 9.3741C68.4772 11.8263 73.6255 14.0564 75.6305 11.7888H75.6273Z" fill="black"/>
<path d="M34.9346 9.68686C34.309 9.68686 33.8023 9.18015 33.8023 8.55459L33.8086 5.50497C33.8086 4.31015 34.7782 3.3374 35.973 3.3374C37.1678 3.3374 38.1156 4.30702 38.1156 5.50497V7.43796H50.5267C51.9217 7.43796 52.3471 7.13456 52.7881 6.99068C53.4074 6.79363 54.0955 6.925 54.3583 7.51616C54.621 8.10731 54.3145 8.69534 53.8109 9.02063C53.3073 9.34592 52.1813 9.66809 50.5267 9.66809H45.7881V10.8567L54.3739 10.8786C54.9995 10.8786 55.5062 11.3853 55.5062 12.0108C55.5062 12.6364 54.9995 13.1431 54.3739 13.1431H33.4457C32.8202 13.1431 32.3135 12.6364 32.3135 12.0108C32.3135 11.3853 32.8202 10.8786 33.4457 10.8786L41.5499 10.8567V9.66809L34.9346 9.68373V9.68686Z" fill="black"/>
<path d="M33.3582 17.9974C33.3582 15.542 38.0405 13.5527 43.8175 13.5527C49.5946 13.5527 54.2769 15.5451 54.2769 17.9974C54.2769 20.4496 49.5946 22.442 43.8175 22.442C38.0405 22.442 33.3582 20.4527 33.3582 17.9974ZM43.8175 20.3088C47.1862 20.3088 49.9168 19.2735 49.9168 17.9974C49.9168 16.7212 47.1862 15.6859 43.8175 15.6859C40.4489 15.6859 37.7183 16.7212 37.7183 17.9974C37.7183 19.2735 40.4489 20.3088 43.8175 20.3088Z" fill="black"/>
<path d="M59.8225 15.2106C59.8225 14.5851 60.3292 14.0784 60.9548 14.0784H78.8709C79.4964 14.0784 80.0031 14.5851 80.0031 15.2106V20.2276C80.0031 20.8532 79.4964 21.3599 78.8709 21.3599H60.9548C60.3292 21.3599 59.8225 20.8532 59.8225 20.2276V15.2106ZM64.1139 16.2897V19.1141H75.6367V16.2897H64.1139Z" fill="black"/>
<path d="M15.1198 25.7857C23.4703 25.7857 30.2397 20.0133 30.2397 12.8928C30.2397 5.77232 23.4703 0 15.1198 0C6.76938 0 0 5.77232 0 12.8928C0 20.0133 6.76938 25.7857 15.1198 25.7857Z" fill="white"/>
<path d="M1.08228 12.8927C1.08228 6.28055 7.36917 0.922607 15.1199 0.922607C22.8706 0.922607 29.1575 6.28055 29.1575 12.8927C29.1575 19.5049 22.8737 24.8629 15.1199 24.8629C7.36605 24.8629 1.08228 19.5018 1.08228 12.8927ZM15.1199 14.9227C17.5815 14.9227 19.5801 12.0482 19.5801 8.50442C19.5801 4.96061 17.5846 2.08615 15.1199 2.08615C12.6552 2.08615 10.6596 4.96061 10.6596 8.50442C10.6596 12.0482 12.6552 14.9227 15.1199 14.9227Z" fill="#E30613"/>
</g>
<defs>
<clipPath id="clip0_441_4357">
<rect width="80" height="25.7857" fill="white"/>
</clipPath>
</defs>
</svg>
