<svg width="236" height="27" viewBox="0 0 236 27" fill="none" xmlns="http://www.w3.org/2000/svg">
<g clip-path="url(#clip0_441_4367)">
<path d="M17.5349 0.812134H21.8145V11.528H17.5349V0.812134Z" fill="#DF0029"/>
<path d="M6.12138 12.3609C9.50084 12.3609 12.2428 9.62048 12.2428 6.24288C12.2428 2.86528 9.50084 0.124883 6.12138 0.124883C2.74191 0.120718 0 2.86112 0 6.23872C0 9.61632 2.74191 12.3526 6.12138 12.3567V12.3609ZM6.12138 3.91896C7.40482 3.91896 8.44241 4.95598 8.44241 6.23872C8.44241 7.52146 7.40482 8.55848 6.12138 8.55848C4.83793 8.55848 3.80034 7.52146 3.80034 6.23872C3.80034 4.95598 4.83793 3.91896 6.12138 3.91896Z" fill="#DF0029"/>
<path d="M6.18811 15.9259H2.24609C2.24609 20.5862 6.98401 24.2887 11.9636 24.2887C16.9432 24.2887 21.677 20.5862 21.677 15.9259H17.7391C17.5808 18.3831 14.843 20.5071 11.9636 20.5071C9.0842 20.5071 6.34646 18.3789 6.18811 15.9259Z" fill="#DF0029"/>
<path d="M36.7408 14.9264C30.5861 14.9264 27.0566 16.6756 27.0566 19.72C27.0566 22.7644 30.5861 24.5136 36.745 24.5136C42.9039 24.5136 46.4334 22.7644 46.4334 19.72C46.4334 16.6756 42.9039 14.9264 36.745 14.9264H36.7408ZM36.745 21.3526C33.1864 21.3526 31.0612 20.7445 31.0612 19.7242C31.0612 18.7038 33.1864 18.0958 36.745 18.0958C40.3036 18.0958 42.4288 18.7038 42.4288 19.7242C42.4288 20.7445 40.3036 21.3526 36.745 21.3526Z" fill="#DF0029"/>
<path d="M41.637 8.40857H43.2705V13.1689H46.8583V0.682983H43.2705V4.91436H41.637V0.682983H38.0825V13.1689H41.637V8.40857Z" fill="#DF0029"/>
<path d="M30.8695 0.374878C29.1443 0.374878 27.64 1.5535 27.2275 3.23189L24.7981 13.169H28.9235L30.8695 3.31102L32.8155 13.169H36.9408L34.5115 3.23189C34.1031 1.5535 32.5988 0.374878 30.8695 0.374878Z" fill="#DF0029"/>
<path d="M49.5251 9.91626H71.6896V13.1273H49.5251V9.91626Z" fill="#DF0029"/>
<path d="M60.6054 8.90837C66.7601 8.90837 70.2937 7.28413 70.2937 4.45627C70.2937 1.62841 66.7601 0 60.6054 0C54.4506 0 50.917 1.62425 50.917 4.45211C50.917 7.27996 54.4465 8.90421 60.6054 8.90421V8.90837ZM60.6054 3.05692C62.7305 3.05692 66.2892 3.27765 66.2892 4.45211C66.2892 5.62656 62.7264 5.83896 60.6054 5.83896C58.4843 5.83896 54.9215 5.6224 54.9215 4.45211C54.9215 3.28181 58.4843 3.05692 60.6054 3.05692Z" fill="#DF0029"/>
<path d="M68.7769 14.5142H51.0753V17.4919H62.4013C62.4013 17.4919 60.647 17.8126 60.1386 17.9792C59.6302 18.1458 52.6796 20.4198 52.0796 20.6155C51.2961 20.8654 50.8628 21.6983 51.1086 22.4855C51.3045 23.1019 51.8795 23.5225 52.5296 23.5225H70.427V20.5447H58.901C58.901 20.5447 60.6553 20.224 61.1637 20.0574C61.6721 19.8908 68.6227 17.6169 69.2227 17.4211C70.0061 17.1713 70.4395 16.3383 70.1937 15.5512C69.9978 14.9348 69.4228 14.5142 68.7769 14.5142Z" fill="#DF0029"/>
<path d="M140.746 8.50028L140.775 8.28788H142.963V23.4933H146.517V0.516479H142.963V4.6479H140.879V0.812176H130.828V4.31889H137.312V6.8802C137.312 9.84133 135.041 14.0311 130.532 14.1976V17.696C135.737 17.5669 140.071 13.6646 140.746 8.50028Z" fill="#DF0029"/>
<path d="M148.051 0.516479H151.755V23.4892H148.051V0.516479Z" fill="#DF0029"/>
<path d="M158.668 26.9999C159.648 25.5798 160.189 23.9055 160.223 22.1813V18.5122H155.701V23.0309H157.956L157.914 23.3142C157.685 24.6552 157.135 25.9171 156.314 26.9999" fill="#DF0029"/>
<path d="M103.343 0.516479H99.0964V13.3855H103.343V8.29205H105.714V4.6479H103.343V0.516479Z" fill="#DF0029"/>
<path d="M86.8494 12.9773H92.6333C94.5335 12.9773 96.0753 11.4364 96.0794 9.53309V0.849609H83.4075V9.53309C83.4075 11.4322 84.9493 12.9732 86.8536 12.9773H86.8494ZM87.0911 4.21472H92.3999V8.48357C92.3999 9.10829 91.8916 9.61222 91.2665 9.61638H88.2246C87.5995 9.61638 87.0953 9.10829 87.0911 8.48357V4.21055V4.21472Z" fill="#DF0029"/>
<path d="M91.7665 15.0514C91.7498 16.8589 91.1373 18.1708 89.9497 18.9413C88.7621 19.7117 86.641 20.1907 83.7866 20.2198V23.6266C84.07 23.6308 84.3492 23.6349 84.62 23.6349C86.4702 23.6932 88.3204 23.46 90.1038 22.9477C91.6623 22.4563 93.0291 21.4901 94.0125 20.1782C94.9918 21.4859 96.3586 22.4563 97.9212 22.9477C99.7005 23.46 101.551 23.6932 103.401 23.6349C103.672 23.6349 103.951 23.6349 104.234 23.6266V20.2198C101.38 20.1907 99.2547 19.7117 98.0712 18.9413C96.8878 18.1708 96.2711 16.8589 96.2544 15.0514H91.7707H91.7665Z" fill="#DF0029"/>
<path d="M123.657 0.516479H127.903V13.3855H123.657V0.516479Z" fill="#DF0029"/>
<path d="M107.597 6.76353C107.597 10.4993 110.627 13.5271 114.364 13.5271C118.102 13.5271 121.132 10.4993 121.132 6.76353C121.132 3.02776 118.102 0 114.364 0C110.627 0.00416474 107.601 3.03193 107.597 6.76353ZM117.344 6.76353C117.344 8.40861 116.01 9.74132 114.369 9.74132C112.727 9.74132 111.389 8.40861 111.389 6.7677C111.389 5.12679 112.723 3.78991 114.364 3.78991C116.006 3.78991 117.34 5.12263 117.344 6.76353Z" fill="#DF0029"/>
<path d="M125.14 15.5845H121.177C121.161 17.8043 119.981 20.2365 118.581 20.2365C117.181 20.2365 115.998 17.8043 115.985 15.5845H112.018C112.006 17.2004 111.606 18.3665 110.826 19.0579C109.918 19.7409 108.826 20.1449 107.689 20.2198V23.5475C108.76 23.51 110.406 23.3559 111.485 22.8936C112.585 22.4146 113.477 21.5609 114.002 20.4864C114.848 22.2897 117.044 23.5683 118.581 23.5683C120.119 23.5683 122.315 22.2855 123.161 20.4864C123.686 21.5609 124.578 22.4146 125.678 22.8936C126.753 23.36 128.399 23.5141 129.47 23.5475V20.2198C128.332 20.1449 127.245 19.7409 126.332 19.0579C125.557 18.3665 125.157 17.1962 125.144 15.5845" fill="#DF0029"/>
<path d="M222.153 10.4577C223.557 10.4577 224.699 9.31658 224.699 7.91306C224.699 6.50955 223.557 5.36841 222.153 5.36841C220.749 5.36841 219.607 6.50955 219.607 7.91306C219.607 9.31658 220.749 10.4577 222.153 10.4577Z" fill="#DF0029"/>
<path d="M232.579 5.36841C231.175 5.36841 230.033 6.50955 230.033 7.91306C230.033 9.31658 231.175 10.4577 232.579 10.4577C233.983 10.4577 235.125 9.31658 235.125 7.91306C235.125 6.50955 233.983 5.36841 232.579 5.36841Z" fill="#DF0029"/>
<path d="M231.704 13.2564C231.587 15.0764 229.558 16.6715 227.37 16.6715C225.182 16.6715 223.153 15.0764 223.036 13.2564L223.028 13.1064H219.653V13.2647C219.653 16.8131 223.257 19.9283 227.37 19.9283C231.483 19.9283 235.088 16.8131 235.088 13.2647V13.1064H231.712L231.704 13.2564Z" fill="#DF0029"/>
<path d="M178.774 14.3601C172.62 14.3601 169.086 16.0843 169.086 19.0913C169.086 22.0982 172.615 23.8224 178.774 23.8224C184.933 23.8224 188.463 22.0982 188.463 19.0913C188.463 16.0843 184.933 14.3601 178.774 14.3601ZM178.774 20.6031C175.216 20.6031 173.09 20.0158 173.09 19.0913C173.09 18.1667 175.216 17.5795 178.774 17.5795C182.333 17.5795 184.458 18.1667 184.458 19.0913C184.458 20.0158 182.333 20.6031 178.774 20.6031Z" fill="#DF0029"/>
<path d="M180.987 8.07551H187.933V4.82701H173.882C173.34 4.82701 172.899 4.38555 172.899 3.84413V0.224976H169.028V5.29346C169.028 6.83025 170.273 8.07551 171.811 8.07551H176.862V9.93298H167.694V13.1398H189.859V9.92882H180.987V8.07134V8.07551Z" fill="#DF0029"/>
<path d="M208.814 0.19165H213.061V12.5401H208.814V0.19165Z" fill="#DF0029"/>
<path d="M194.471 19.7784C194.471 21.6775 196.013 23.2184 197.918 23.2226H209.619C211.519 23.2226 213.061 21.6816 213.065 19.7784V14.4183H194.471V19.7784ZM198.638 17.5544H208.898V18.8996C208.898 19.5576 208.364 20.0907 207.706 20.0907H199.83C199.172 20.0907 198.638 19.5576 198.638 18.8996V17.5544Z" fill="#DF0029"/>
<path d="M199.559 3.10693L202.614 12.5442H207.072L203.526 2.78624C202.73 0.595591 200.309 -0.537218 198.113 0.258247C196.938 0.68305 196.009 1.61179 195.584 2.78624L192.042 12.5442H196.501L199.555 3.10693H199.559Z" fill="#DF0029"/>
</g>
<defs>
<clipPath id="clip0_441_4367">
<rect width="235.125" height="27" fill="white"/>
</clipPath>
</defs>
</svg>
