<svg width="206" height="21" viewBox="0 0 206 21" fill="none" xmlns="http://www.w3.org/2000/svg">
<g clip-path="url(#clip0_599_5538)">
<path d="M43.9817 1.60156H47.15V9.53925H43.9817V1.60156Z" fill="#DF0029"/>
<path d="M35.5319 10.1555C38.0338 10.1555 40.0637 8.12558 40.0637 5.62365C40.0637 3.12172 38.0338 1.0918 35.5319 1.0918C33.0299 1.08872 31 3.11864 31 5.62057C31 8.1225 33.0299 10.1493 35.5319 10.1524V10.1555ZM35.5319 3.90223C36.482 3.90223 37.2502 4.67039 37.2502 5.62057C37.2502 6.57074 36.482 7.33891 35.5319 7.33891C34.5817 7.33891 33.8135 6.57074 33.8135 5.62057C33.8135 4.67039 34.5817 3.90223 35.5319 3.90223Z" fill="#DF0029"/>
<path d="M35.5812 12.7969H32.6628C32.6628 16.249 36.1705 18.9915 39.857 18.9915C43.5436 18.9915 47.0482 16.249 47.0482 12.7969H44.1328C44.0156 14.617 41.9888 16.1904 39.857 16.1904C37.7253 16.1904 35.6985 14.6139 35.5812 12.7969Z" fill="#DF0029"/>
<path d="M58.2003 12.0566C53.6437 12.0566 51.0308 13.3523 51.0308 15.6075C51.0308 17.8626 53.6437 19.1583 58.2034 19.1583C62.763 19.1583 65.376 17.8626 65.376 15.6075C65.376 13.3523 62.763 12.0566 58.2034 12.0566H58.2003ZM58.2034 16.8168C55.5688 16.8168 53.9954 16.3664 53.9954 15.6106C53.9954 14.8547 55.5688 14.4043 58.2034 14.4043C60.8379 14.4043 62.4113 14.8547 62.4113 15.6106C62.4113 16.3664 60.8379 16.8168 58.2034 16.8168Z" fill="#DF0029"/>
<path d="M61.8253 7.22852H63.0347V10.7547H65.6908V1.50586H63.0347V4.64021H61.8253V1.50586H59.1938V10.7547H61.8253V7.22852Z" fill="#DF0029"/>
<path d="M53.8537 1.27734C52.5765 1.27734 51.4629 2.1504 51.1574 3.39365L49.3589 10.7544H52.413L53.8537 3.45226L55.2944 10.7544H58.3486L56.55 3.39365C56.2477 2.1504 55.134 1.27734 53.8537 1.27734Z" fill="#DF0029"/>
<path d="M67.665 8.3457H84.0741V10.7242H67.665V8.3457Z" fill="#DF0029"/>
<path d="M75.8682 7.5988C80.4247 7.5988 83.0408 6.39565 83.0408 4.30094C83.0408 2.20623 80.4247 1 75.8682 1C71.3116 1 68.6956 2.20315 68.6956 4.29786C68.6956 6.39256 71.3085 7.59571 75.8682 7.59571V7.5988ZM75.8682 3.26438C77.4415 3.26438 80.0761 3.42789 80.0761 4.29786C80.0761 5.16782 77.4384 5.32516 75.8682 5.32516C74.2979 5.32516 71.6602 5.16474 71.6602 4.29786C71.6602 3.43097 74.2979 3.26438 75.8682 3.26438Z" fill="#DF0029"/>
<path d="M81.9177 11.752H68.8127V13.9577H77.1977C77.1977 13.9577 75.8989 14.1953 75.5225 14.3187C75.1461 14.4421 70.0004 16.1265 69.5561 16.2715C68.9762 16.4566 68.6553 17.0736 68.8373 17.6566C68.9823 18.1132 69.4081 18.4248 69.8893 18.4248H83.1394V16.219H74.6063C74.6063 16.219 75.9051 15.9815 76.2814 15.8581C76.6578 15.7347 81.8036 14.0503 82.2478 13.9053C82.8278 13.7202 83.1486 13.1032 82.9666 12.5201C82.8216 12.0635 82.3959 11.752 81.9177 11.752Z" fill="#DF0029"/>
<path d="M135.199 7.29674L135.22 7.13941H136.84V18.4027H139.471V1.38281H136.84V4.44312H135.297V1.60185H127.856V4.19941H132.657V6.09668C132.657 8.29011 130.975 11.3936 127.637 11.517V14.1084C131.491 14.0128 134.699 11.1221 135.199 7.29674Z" fill="#DF0029"/>
<path d="M140.607 1.38281H143.349V18.3996H140.607V1.38281Z" fill="#DF0029"/>
<path d="M148.467 21.0001C149.192 19.9481 149.593 18.708 149.618 17.4308V14.7129H146.271V18.0601H147.94L147.909 18.2699C147.739 19.2633 147.332 20.198 146.724 21.0001" fill="#DF0029"/>
<path d="M107.508 1.38281H104.364V10.9154H107.508V7.14249H109.263V4.44312H107.508V1.38281Z" fill="#DF0029"/>
<path d="M95.2975 10.6124H99.5794C100.986 10.6124 102.128 9.47095 102.131 8.06111V1.62891H92.7493V8.06111C92.7493 9.46787 93.8907 10.6093 95.3006 10.6124H95.2975ZM95.4764 4.12158H99.4067V7.2837C99.4067 7.74645 99.0303 8.11973 98.5676 8.12281H96.3155C95.8528 8.12281 95.4795 7.74645 95.4764 7.2837V4.11849V4.12158Z" fill="#DF0029"/>
<path d="M98.9378 12.1484C98.9254 13.4873 98.472 14.4591 97.5927 15.0298C96.7135 15.6005 95.1432 15.9553 93.03 15.9769V18.5004C93.2398 18.5035 93.4465 18.5066 93.647 18.5066C95.0168 18.5498 96.3865 18.377 97.7069 17.9976C98.8607 17.6336 99.8725 16.9178 100.601 15.9461C101.326 16.9148 102.337 17.6336 103.494 17.9976C104.812 18.377 106.181 18.5498 107.551 18.5066C107.752 18.5066 107.958 18.5066 108.168 18.5004V15.9769C106.055 15.9553 104.482 15.6005 103.605 15.0298C102.729 14.4591 102.273 13.4873 102.26 12.1484H98.9409H98.9378Z" fill="#DF0029"/>
<path d="M122.547 1.38281H125.691V10.9154H122.547V1.38281Z" fill="#DF0029"/>
<path d="M110.658 6.01003C110.658 8.77726 112.901 11.0201 115.668 11.0201C118.435 11.0201 120.678 8.77726 120.678 6.01003C120.678 3.24279 118.435 1 115.668 1C112.901 1.00308 110.661 3.24587 110.658 6.01003ZM117.874 6.01003C117.874 7.2286 116.886 8.21579 115.671 8.21579C114.455 8.21579 113.465 7.2286 113.465 6.01311C113.465 4.79762 114.452 3.80734 115.668 3.80734C116.883 3.80734 117.87 4.79454 117.874 6.01003Z" fill="#DF0029"/>
<path d="M123.646 12.5449H120.712C120.699 14.1892 119.826 15.9909 118.79 15.9909C117.753 15.9909 116.877 14.1892 116.868 12.5449H113.931C113.922 13.7419 113.625 14.6057 113.049 15.1178C112.376 15.6237 111.568 15.923 110.726 15.9785V18.4434C111.518 18.4157 112.737 18.3015 113.536 17.9591C114.35 17.6043 115.011 16.9719 115.399 16.176C116.026 17.5118 117.651 18.4589 118.79 18.4589C119.928 18.4589 121.554 17.5087 122.18 16.176C122.569 16.9719 123.229 17.6043 124.043 17.9591C124.839 18.3046 126.058 18.4187 126.851 18.4434V15.9785C126.009 15.923 125.203 15.6237 124.528 15.1178C123.954 14.6057 123.658 13.7388 123.649 12.5449" fill="#DF0029"/>
<path d="M195.467 8.74642C196.507 8.74642 197.352 7.90113 197.352 6.86149C197.352 5.82185 196.507 4.97656 195.467 4.97656C194.428 4.97656 193.582 5.82185 193.582 6.86149C193.582 7.90113 194.428 8.74642 195.467 8.74642Z" fill="#DF0029"/>
<path d="M203.186 4.97656C202.146 4.97656 201.301 5.82185 201.301 6.86149C201.301 7.90113 202.146 8.74642 203.186 8.74642C204.225 8.74642 205.071 7.90113 205.071 6.86149C205.071 5.82185 204.225 4.97656 203.186 4.97656Z" fill="#DF0029"/>
<path d="M202.538 10.8181C202.452 12.1662 200.949 13.3478 199.33 13.3478C197.71 13.3478 196.208 12.1662 196.121 10.8181L196.115 10.707H193.616V10.8243C193.616 13.4527 196.285 15.7602 199.33 15.7602C202.375 15.7602 205.043 13.4527 205.043 10.8243V10.707H202.544L202.538 10.8181Z" fill="#DF0029"/>
<path d="M163.352 11.6367C158.796 11.6367 156.18 12.9139 156.18 15.1413C156.18 17.3686 158.793 18.6458 163.352 18.6458C167.912 18.6458 170.525 17.3686 170.525 15.1413C170.525 12.9139 167.912 11.6367 163.352 11.6367ZM163.352 16.2611C160.718 16.2611 159.144 15.8261 159.144 15.1413C159.144 14.4564 160.718 14.0214 163.352 14.0214C165.987 14.0214 167.56 14.4564 167.56 15.1413C167.56 15.8261 165.987 16.2611 163.352 16.2611Z" fill="#DF0029"/>
<path d="M164.991 6.98122H170.133V4.57493H159.731C159.33 4.57493 159.003 4.24792 159.003 3.84687V1.16602H156.137V4.92045C156.137 6.05881 157.059 6.98122 158.197 6.98122H161.936V8.35713H155.149V10.7326H171.558V8.35404H164.991V6.97814V6.98122Z" fill="#DF0029"/>
<path d="M185.592 1.14062H188.736V10.2876H185.592V1.14062Z" fill="#DF0029"/>
<path d="M174.974 15.6501C174.974 17.0568 176.115 18.1983 177.525 18.2014H186.188C187.594 18.2014 188.736 17.0599 188.739 15.6501V11.6797H174.974V15.6501ZM178.059 14.0027H185.654V14.9991C185.654 15.4866 185.259 15.8814 184.772 15.8814H178.941C178.453 15.8814 178.059 15.4866 178.059 14.9991V14.0027Z" fill="#DF0029"/>
<path d="M178.74 3.30049L181.002 10.2911H184.303L181.677 3.06294C181.088 1.44024 179.296 0.60112 177.67 1.19035C176.8 1.50502 176.112 2.19298 175.797 3.06294L173.175 10.2911H176.476L178.737 3.30049H178.74Z" fill="#DF0029"/>
</g>
<path d="M0 9.87399C0 4.55455 5.1504 0.244141 11.5 0.244141C17.8496 0.244141 23 4.55455 23 9.87399C23 15.1934 17.8522 19.5038 11.5 19.5038C5.14784 19.5038 0 15.1909 0 9.87399ZM11.5 11.5071C13.5166 11.5071 15.154 9.19459 15.154 6.34363C15.154 3.49267 13.5192 1.1802 11.5 1.1802C9.48084 1.1802 7.84603 3.49267 7.84603 6.34363C7.84603 9.19459 9.48084 11.5071 11.5 11.5071Z" fill="#DF0029"/>
<defs>
<clipPath id="clip0_599_5538">
<rect width="174.071" height="20" fill="white" transform="translate(31 1)"/>
</clipPath>
</defs>
</svg>
