<svg width="28" height="28" viewBox="0 0 28 28" fill="none" xmlns="http://www.w3.org/2000/svg">
<path d="M23.7001 13.5195H15.2901C14.5059 13.5195 13.8701 14.1553 13.8701 14.9395V22.4095C13.8701 23.1938 14.5059 23.8295 15.2901 23.8295H23.7001C24.4844 23.8295 25.1201 23.1938 25.1201 22.4095V14.9395C25.1201 14.1553 24.4844 13.5195 23.7001 13.5195Z" fill="#E8A334" stroke="#222222" stroke-width="1.5" stroke-miterlimit="10"/>
<path d="M20.09 3.07031H11.7C10.9158 3.07031 10.28 3.70607 10.28 4.49031V12.0903C10.28 12.8746 10.9158 13.5103 11.7 13.5103H20.09C20.8743 13.5103 21.51 12.8746 21.51 12.0903V4.49031C21.51 3.70607 20.8743 3.07031 20.09 3.07031Z" fill="#EFC17F" stroke="#222222" stroke-width="1.5" stroke-miterlimit="10"/>
<path d="M16.3001 10.2207H4.30013C3.51588 10.2207 2.88013 10.8565 2.88013 11.6407V22.4007C2.88013 23.1849 3.51588 23.8207 4.30013 23.8207H16.3001C17.0844 23.8207 17.7201 23.1849 17.7201 22.4007V11.6407C17.7201 10.8565 17.0844 10.2207 16.3001 10.2207Z" fill="#FFC661" stroke="#222222" stroke-width="1.5" stroke-miterlimit="10"/>
<path d="M6.55994 13.5195H14.1299C14.3399 13.5195 14.5099 13.6895 14.5099 13.8995V15.2295C14.5099 16.0695 13.8299 16.7395 12.9999 16.7395H7.69994C6.85994 16.7395 6.18994 16.0595 6.18994 15.2295V13.8995C6.18994 13.6895 6.35994 13.5195 6.56994 13.5195H6.55994Z" fill="#DBA752"/>
<path d="M12.7701 13.0195H7.93008C7.32256 13.0195 6.83008 13.512 6.83008 14.1195C6.83008 14.727 7.32256 15.2195 7.93008 15.2195H12.7701C13.3776 15.2195 13.8701 14.727 13.8701 14.1195C13.8701 13.512 13.3776 13.0195 12.7701 13.0195Z" fill="white" stroke="#222222" stroke-width="1.5" stroke-miterlimit="10"/>
<path d="M26.4501 21.2695H1.56006V24.9195H26.4501V21.2695Z" fill="#7C4131" stroke="#222222" stroke-width="1.5" stroke-linecap="round" stroke-linejoin="round"/>
</svg>
