<svg width="28" height="28" viewBox="0 0 28 28" fill="none" xmlns="http://www.w3.org/2000/svg">
<path d="M3.29004 18.4698V12.0298L7.83004 6.44977L17.25 9.53977L24.71 4.75977V18.4698H3.29004Z" fill="#425CCC" stroke="#222222" stroke-width="1.5" stroke-linecap="round" stroke-linejoin="round"/>
<path opacity="0.1" d="M25.08 5.47921C24.83 5.34921 24.53 5.35921 24.29 5.50921L17.15 10.0892L8.08002 7.11921C7.78002 7.01921 7.44003 7.11921 7.24003 7.36921L2.70003 12.9392C2.59003 13.0792 2.53003 13.2492 2.53003 13.4292V15.3092C2.53003 15.1292 2.59003 14.9592 2.70003 14.8192L7.24003 9.24921C7.44003 8.99921 7.78002 8.89921 8.08002 8.99921L17.15 11.9692L24.29 7.38921C24.53 7.23921 24.83 7.22921 25.08 7.35921C25.33 7.49921 25.48 7.75921 25.48 8.03921V6.15921C25.48 5.87921 25.33 5.61921 25.08 5.47921Z" fill="#222222"/>
<path d="M3.29004 23.2391V16.7991L10.76 12.0791L17.25 15.5191L24.71 9.53906V23.2391H3.29004Z" fill="#00D2E2" stroke="#222222" stroke-width="1.5" stroke-linecap="round" stroke-linejoin="round"/>
<path opacity="0.1" d="M25.04 9.8693C24.77 9.7393 24.45 9.7793 24.22 9.9593L17.16 15.6293L11.12 12.4193C10.87 12.2893 10.58 12.2993 10.34 12.4493L2.87001 17.1693C2.65001 17.3093 2.51001 17.5593 2.51001 17.8193V20.3593C2.51001 20.0993 2.65001 19.8493 2.87001 19.7093L10.34 14.9893C10.57 14.8393 10.87 14.8293 11.12 14.9593L17.16 18.1693L24.22 12.4993C24.45 12.3093 24.77 12.2793 25.04 12.4093C25.31 12.5393 25.48 12.8093 25.48 13.1093V10.5693C25.48 10.2693 25.31 9.9993 25.04 9.8693Z" fill="#222222"/>
</svg>
