<svg width="28" height="28" viewBox="0 0 28 28" fill="none" xmlns="http://www.w3.org/2000/svg">
<path d="M21.6 6.25H6.39998C5.61573 6.25 4.97998 6.88576 4.97998 7.67V24.08C4.97998 24.8642 5.61573 25.5 6.39998 25.5H21.6C22.3842 25.5 23.02 24.8642 23.02 24.08V7.67C23.02 6.88576 22.3842 6.25 21.6 6.25Z" fill="#E6F4FC" stroke="#222222" stroke-width="1.5" stroke-miterlimit="10"/>
<path d="M8.86987 13.5605H19.1299" stroke="#D1E3E8" stroke-miterlimit="10"/>
<path d="M8.86987 17.5215H19.1299" stroke="#D1E3E8" stroke-miterlimit="10"/>
<path d="M8.86987 21.4902H19.1299" stroke="#D1E3E8" stroke-miterlimit="10"/>
<path d="M8.86987 12.5996H19.1299" stroke="#2ABC2A" stroke-width="1.5" stroke-miterlimit="10"/>
<path d="M8.86987 16.5605H19.1299" stroke="#2ABC2A" stroke-width="1.5" stroke-miterlimit="10"/>
<path d="M8.86987 20.5195H19.1299" stroke="#2ABC2A" stroke-width="1.5" stroke-miterlimit="10"/>
<path d="M16.2299 4.71977C16.2299 4.63977 16.2299 4.56977 16.2299 4.48977C16.2299 3.39977 15.2299 2.50977 13.9999 2.50977C12.7699 2.50977 11.7699 3.39977 11.7699 4.48977C11.7699 4.56977 11.7699 4.63977 11.7699 4.71977H9.18994V7.11977C9.18994 7.90977 9.90994 8.54977 10.7999 8.54977H17.2099C18.0999 8.54977 18.8199 7.90977 18.8199 7.11977V4.71977H16.2399H16.2299Z" fill="#90A4AE" stroke="#222222" stroke-width="1.5" stroke-linejoin="round"/>
</svg>
