<svg width="40" height="40" viewBox="0 0 40 40" fill="none" xmlns="http://www.w3.org/2000/svg">
<path opacity="0.1" d="M20 36C28.8366 36 36 34.2091 36 32C36 29.7909 28.8366 28 20 28C11.1634 28 4 29.7909 4 32C4 34.2091 11.1634 36 20 36Z" fill="#222222"/>
<path d="M9.43994 14.0703H30.5599V29.8783C30.5599 30.7103 29.8773 31.393 29.0453 31.393H10.9546C10.1226 31.393 9.43994 30.7103 9.43994 29.8783V14.0703Z" fill="white" stroke="#222222" stroke-width="1.5" stroke-miterlimit="10"/>
<path d="M23.5521 31.3809H16.3841V25.0129C16.3841 24.5649 16.7467 24.2022 17.1947 24.2022H22.7521C23.2001 24.2022 23.5627 24.5649 23.5627 25.0129V31.3809H23.5521Z" fill="white" stroke="#222222" stroke-width="1.5" stroke-miterlimit="10"/>
<path d="M15.5413 5.15234H24.4586V12.7363C24.4586 15.1683 22.4853 17.1417 20.0533 17.1417C17.5679 17.1417 15.5519 15.1257 15.5519 12.6403V5.15234H15.5413Z" fill="#FF9D00" stroke="#222222" stroke-width="1.5" stroke-linejoin="round"/>
<path d="M11.0827 17.1417C8.61869 17.1417 6.62402 15.3497 6.62402 13.1417L8.33069 5.15234H15.5414V13.1417C15.5414 15.3497 13.5467 17.1417 11.0827 17.1417Z" fill="#DE0029" stroke="#222222" stroke-width="1.5" stroke-linejoin="round"/>
<path d="M28.9172 17.1417C31.3812 17.1417 33.3759 15.3497 33.3759 13.1417L31.6799 5.15234H24.4692V13.1417C24.4692 15.3497 26.4639 17.1417 28.9279 17.1417H28.9172Z" fill="#DE0029" stroke="#222222" stroke-width="1.5" stroke-linejoin="round"/>
<path opacity="0.1" d="M10.144 20.096H29.8454V17.4933L24.4587 15.3066L20 17.4933L15.5414 15.3066L10.144 17.4933V20.096Z" fill="#222222"/>
<path opacity="0.15" d="M6.63477 13.1523H33.3654V14.8377L30.3468 17.1417L26.8481 16.683L24.4588 14.539L20.5761 17.2163H19.4241L15.5414 14.9123L11.4668 17.1417L8.2561 16.235L6.63477 13.1523Z" fill="#222222"/>
</svg>
